<svg xmlns="http://www.w3.org/2000/svg" xmlns:xlink="http://www.w3.org/1999/xlink" xmlns:lucid="lucid" width="2139.58" height="1399.31"><g transform="translate(-60 -82.1882145867915)" lucid:page-tab-id="0_0"><path d="M0 0h2500v1500H0z" fill="#fff"/><path d="M425.5 83.2H1880V1120H425.5z" stroke="#232f3e" stroke-width="2" fill-opacity="0"/><path d="M425.5 83.2h56v56h-56v-56z" stroke="#fff" stroke-opacity="0" fill="#232f3e"/><path d="M443.72 109.06c-.04.48.04.87.16 1.33.13.37.3.7.5 1.06.04.1.08.2.08.34 0 .2-.12.35-.3.45l-.93.62c-.13.08-.25.13-.37.13-.17 0-.33-.08-.45-.22-.2-.2-.36-.42-.53-.7-.16-.24-.3-.52-.45-.86-1.1 1.38-2.63 2.1-4.4 2.07-1.14.05-2.13-.32-2.95-1.1-.78-.78-1.15-1.75-1.1-2.84-.05-1.23.4-2.28 1.35-3.08 1.06-.85 2.3-1.23 3.65-1.16.58 0 1.03.03 1.6.12.58.08 1.1.2 1.73.32v-1.1c.08-.88-.17-1.67-.7-2.37-.74-.57-1.56-.8-2.47-.7-.53 0-1.02.06-1.6.18-.57.14-1.02.3-1.6.52l-.5.2h-.24c-.2 0-.33-.17-.33-.47v-.74c0-.2.04-.35.12-.52.1-.15.24-.25.4-.32.66-.3 1.2-.5 1.9-.67.77-.2 1.47-.3 2.3-.3 1.46-.12 2.78.27 3.9 1.2.93 1.05 1.34 2.3 1.22 3.68zm-6.08 2.28c.58 0 1.07-.1 1.6-.28.58-.2 1.03-.5 1.44-.96.25-.28.4-.58.5-.94.12-.45.16-.84.16-1.3v-.67c-.53-.1-.95-.18-1.44-.22h-1.4c-.82-.07-1.56.13-2.2.6-.55.44-.8 1.03-.75 1.72-.04.6.12 1.15.53 1.6.45.37 1 .5 1.56.44zm12 1.6c-.2 0-.42-.03-.58-.16-.17-.17-.25-.35-.33-.6l-3.5-11.5-.1-.62c0-.23.1-.36.36-.36h1.46c.2-.02.37.03.58.14.16.18.25.36.3.6l2.5 9.95 2.37-9.94c0-.24.1-.44.3-.6.17-.12.37-.16.57-.15h1.2c.24 0 .4.04.6.15.18.2.26.37.3.6l2.34 9.94 2.56-10c.04-.22.16-.42.32-.6.17-.1.37-.16.58-.13h1.4c.16 0 .32.1.37.3V100.27s0 .22-.13.37l-3.6 11.53c-.05.22-.13.42-.3.6-.2.1-.37.14-.57.13h-1.28c-.24.02-.45-.03-.6-.16-.18-.17-.26-.36-.3-.6l-2.3-9.6-2.3 9.6c-.04.24-.12.43-.3.6-.2.13-.4.2-.6.16zm19.2.38c-.8 0-1.5-.07-2.3-.25-.65-.13-1.14-.3-1.7-.6-.22-.1-.38-.23-.46-.42-.1-.14-.13-.28-.13-.43v-.75c0-.3.13-.46.33-.46h.3l.36.16c.57.24 1.02.4 1.6.5.6.15 1.15.2 1.8.2.8.06 1.48-.1 2.18-.5.5-.3.78-.8.74-1.4.04-.4-.12-.75-.37-1.03-.46-.4-.95-.65-1.53-.8l-2.17-.68c-.95-.25-1.73-.73-2.4-1.5-.48-.65-.73-1.35-.73-2.18 0-.6.13-1.08.42-1.6.27-.5.6-.9 1.05-1.22.5-.38 1-.6 1.6-.78.66-.18 1.2-.26 1.9-.25.32-.03.6-.03.98 0l.98.15.84.24.65.27c.16.1.28.22.44.38.1.15.13.3.13.5v.7c0 .3-.13.47-.37.47-.2-.03-.37-.1-.58-.2v.02c-.94-.43-1.8-.6-2.87-.58-.7-.04-1.3.08-1.97.4-.5.3-.74.8-.7 1.36 0 .4.12.76.45 1.05.5.4 1 .65 1.6.82l2.1.66c.94.24 1.68.7 2.3 1.43.5.63.7 1.3.7 2.1 0 .62-.13 1.15-.38 1.72-.28.55-.6.95-1.1 1.32-.5.4-1 .66-1.6.84-.74.24-1.4.34-2.14.35zM471.6 120.67c-5.6 3.82-11.37 5.58-18.15 5.56-8.55.05-15.83-2.74-22.16-8.45-.5-.42 0-1 .48-.67 7.07 4.06 14.02 5.9 22.2 5.9 6.1-.03 11.28-1.08 16.93-3.46.83-.35 1.52.54.7 1.13z" stroke="#fff" stroke-opacity="0" fill="#fff"/><path d="M473.66 118.39c-.65-.83-4.17-.4-5.75-.2-.47 0-.53-.37-.1-.68 2.8-1.97 7.4-1.4 8-.73.6.66-.15 5.27-2.8 7.47-.38.34-.76.15-.6-.28.56-1.53 1.88-4.84 1.26-5.6z" stroke="#fff" stroke-opacity="0" fill="#fff"/><use xlink:href="#a" transform="matrix(1,0,0,1,496.4959883926475,103.1882145867915) translate(0 14.222222222222223)"/><use xlink:href="#b" transform="matrix(1,0,0,1,496.4959883926475,103.1882145867915) translate(45.333333333333336 14.222222222222223)"/><path d="M500 168a8 8 0 0 1 8-8h1304a8 8 0 0 1 8 8v904a8 8 0 0 1-8 8H508a8 8 0 0 1-8-8z" fill="#fff" fill-opacity="0"/><path d="M504.37 160.87l1.16-.48 1.22-.3 1.25-.1h4.5m6 0h9m5.98 0h9m6 0h8.98m6 0h9m6 0h8.98m6 0h9m5.98 0h9m6 0h9m5.98 0h9m6 0h8.98m6 0h9m6 0h8.98m6 0h9m5.98 0h9m6 0h8.98m6 0h9m6 0h8.98m6 0h9m6 0h8.98m6 0h9m5.98 0h9m6 0h8.98m6 0h9m6 0h8.98m6 0h9m6 0h8.98m6 0h9m5.98 0h9m6 0h8.98m6 0h9m6 0h8.98m6 0h9m5.98 0h9m6 0h9m5.98 0h9m6 0h8.98m6 0h9m6 0h8.98m6 0h9m5.98 0h9m6 0h9m5.98 0h9m6 0h8.98m6 0h9m6 0h8.98m6 0h9m5.98 0h9m6 0h8.98m6 0h9m6 0h8.98m6 0h9m6 0h8.98m6 0h9m5.98 0h9m6 0h8.98m6 0h9m6 0h8.98m6 0h9m6 0h8.98m6 0h9m5.98 0h9m6 0h8.98m6 0h9m6 0h8.98m6 0h9m5.98 0h9m6 0h9m5.98 0h9m6 0h8.98m6 0h9m6 0h8.98m6 0h9m5.98 0h9m6 0h9m5.98 0h9m6 0h8.98m6 0h9m6 0h8.98m6 0h9m5.98 0h9m6 0h9m5.98 0h9m6 0h8.98m6 0h9m6 0h8.98m6 0h9m5.98 0h4.5l1.25.1 1.22.3 1.16.47m3.5 3.5l.48 1.16.3 1.22.1 1.25v4.52m0 6.03v9.04m0 6v9.05m0 6.03v9.04m0 6.03v9.04m0 6v9.05m0 6.03v9.04m0 6.03V278m0 6v9.05m0 6.03v9.04m0 6.03v9.04m0 6v9.05m0 6.03v9.04m0 6.03v9.04m0 6v9.05m0 6.03v9.04m0 6.03v9.04m0 6v9.05m0 6.03v9.04m0 6.03v9.04m0 6v9.05m0 6.03v9.04m0 6.03V504m0 6v9.05m0 6.03v9.04m0 6.03v9.04m0 6v9.05m0 6.03v9.04m0 6.03v9.04m0 6v9.05m0 6.03v9.04m0 6.03v9.04m0 6v9.05m0 6.03v9.04m0 6.03v9.04m0 6v9.05m0 6.03v9.04m0 6.03V730m0 6v9.05m0 6.03v9.04m0 6.03v9.04m0 6v9.05m0 6.03v9.04m0 6.03v9.04m0 6v9.05m0 6.03v9.04m0 6.03v9.04m0 6v9.05m0 6.03v9.04m0 6.03v9.04m0 6v9.05m0 6.03v9.04m0 6.03V956m0 6v9.05m0 6.03v9.04m0 6.03v9.04m0 6v9.05m0 6.03v9.04m0 6.03v9.04m0 6v9.05m0 6.03v4.52l-.1 1.25-.3 1.22-.47 1.16m-3.5 3.5l-1.16.48-1.22.3-1.25.1h-4.5m-6 0h-8.98m-6 0h-9m-6 0h-8.98m-6 0h-9m-6 0h-8.98m-6 0h-9m-5.98 0h-9m-6 0h-8.98m-6 0h-9m-6 0h-8.98m-6 0h-9m-6 0h-8.98m-6 0h-9m-5.98 0h-9m-6 0h-8.98m-6 0h-9m-6 0h-8.98m-6 0h-9m-6 0h-8.98m-6 0h-9m-5.98 0h-9m-6 0h-8.98m-6 0h-9m-6 0h-8.98m-6 0h-9m-5.98 0h-9m-6 0h-9m-5.98 0h-9m-6 0h-8.98m-6 0h-9m-6 0h-8.98m-6 0h-9m-5.98 0h-9m-6 0h-9m-5.98 0h-9m-6 0h-8.98m-6 0h-9m-6 0h-8.98m-6 0h-9m-5.98 0h-9m-6 0h-9m-5.98 0h-9m-6 0H1163m-6 0h-9m-6 0h-8.98m-6 0h-9m-5.98 0h-9m-6 0h-8.98m-6 0h-9m-6 0h-8.98m-6 0h-9m-6 0h-8.98m-6 0h-9m-5.98 0h-9m-6 0h-8.98m-6 0h-9m-6 0h-8.98m-6 0h-9m-6 0h-8.98m-6 0h-9m-5.98 0h-9m-6 0h-8.98m-6 0h-9m-6 0h-8.98m-6 0h-9m-6 0h-8.98m-6 0h-9m-5.98 0h-9m-6 0h-8.98m-6 0h-9m-6 0h-8.98m-6 0h-9m-5.98 0h-9m-6 0h-9m-5.98 0h-9m-6 0h-8.98m-6 0h-9m-6 0h-8.98m-6 0h-9m-5.98 0h-9m-6 0h-9m-5.98 0h-9m-6 0h-8.98m-6 0h-9m-6 0h-8.98m-6 0h-9m-5.98 0H508l-1.25-.1-1.22-.3-1.16-.47m-3.5-3.5l-.48-1.16-.3-1.22-.1-1.25v-4.52m0-6.03v-9.04m0-6v-9.05m0-6.03v-9.04m0-6.03v-9.04m0-6v-9.05m0-6.03v-9.04m0-6.03V962m0-6v-9.05m0-6.03v-9.04m0-6.03v-9.04m0-6v-9.05m0-6.03v-9.04m0-6.03v-9.04m0-6v-9.05m0-6.03v-9.04m0-6.03v-9.04m0-6v-9.05m0-6.03v-9.04m0-6.03v-9.04m0-6v-9.05m0-6.03v-9.04m0-6.03V736m0-6v-9.05m0-6.03v-9.04m0-6.03v-9.04m0-6v-9.05m0-6.03v-9.04m0-6.03v-9.04m0-6v-9.05m0-6.03v-9.04m0-6.03v-9.04m0-6v-9.05m0-6.03v-9.04m0-6.03v-9.04m0-6v-9.05m0-6.03v-9.04m0-6.03V510m0-6v-9.05m0-6.03v-9.04m0-6.03v-9.04m0-6v-9.05m0-6.03v-9.04m0-6.03v-9.04m0-6v-9.05m0-6.03v-9.04m0-6.03v-9.04m0-6v-9.05m0-6.03v-9.04m0-6.03v-9.04m0-6v-9.05m0-6.03v-9.04m0-6.03V284m0-6v-9.05m0-6.03v-9.04m0-6.03v-9.04m0-6v-9.05m0-6.03v-9.04m0-6.03v-9.04m0-6v-9.05m0-6.03V168l.1-1.25.3-1.22.47-1.16" stroke="#147eba" stroke-width="3" fill="none"/><path d="M500 160h56v56h-56v-56z" stroke="#fff" stroke-opacity="0" fill="#147eba"/><path d="M543.84 189.36l-5.96-7.36 5.96-7.4h-26.17v-2.08c.98-.32 1.62-1.16 1.62-2.2-.1-1.15-1.03-2.02-2.17-2.14-1.3-.08-2.44.87-2.53 2.15 0 1.03.63 1.87 1.58 2.2v33.88h-4.02v1.6h9.44v-1.6h-3.93v-17.04zm-26.96-19.75c.4-.03.76.33.76.73 0 .44-.32.75-.73.75-.4.04-.75-.3-.75-.7v-.05c0-.4.32-.72.73-.72zm23.6 6.62l-4.65 5.78 4.65 5.73h-22.8v-11.5z" stroke="#fff" stroke-opacity="0" fill="#fff"/><use xlink:href="#c" transform="matrix(1,0,0,1,571,180) translate(608.8888888888889 17.77777777777778)"/><path d="M620 1188a8 8 0 0 1 8-8h1064a8 8 0 0 1 8 8v284a8 8 0 0 1-8 8H628a8 8 0 0 1-8-8z" fill="#fff" fill-opacity="0"/><path d="M646.14 1180h12.1m12.08 0h12.1m12.08 0h12.1m12.08 0h12.1m12.08 0h12.1m12.08 0h12.1m12.1 0h12.08m12.1 0h12.08m12.1 0h12.08m12.1 0h12.08m12.1 0h12.08m12.1 0h12.1m12.08 0h12.1m12.08 0h12.1m12.08 0h12.1m12.08 0h12.1m12.1 0h12.08m12.1 0h12.08m12.1 0h12.08m12.1 0h12.08m12.1 0h12.08m12.1 0h12.1m12.08 0h12.1m12.08 0h12.1m12.08 0h12.1m12.08 0h12.1m12.08 0h12.1m12.1 0h12.08m12.1 0h12.08m12.1 0h12.08m12.1 0h12.08m12.1 0h12.08m12.1 0h12.1m12.08 0h12.1m12.08 0h12.1m12.08 0h12.1m12.08 0h12.1m12.08 0h12.1m12.1 0h12.08m12.1 0h12.08m12.1 0h12.08m12.1 0h12.08m12.1 0h12.08m12.1 0h6.04a8 8 0 0 1 8 8v5.92m0 11.83v11.83m0 11.84v11.83m0 11.83v11.84m0 11.83v11.83m0 11.84v11.83m0 11.83v11.84m0 11.83v11.83m0 11.84v11.83m0 11.83v11.84m0 11.83v11.83m0 11.84v11.83m0 11.83v5.92a8 8 0 0 1-8 8h-6.05m-12.1 0h-12.08m-12.1 0h-12.08m-12.1 0h-12.1m-12.08 0h-12.1m-12.08 0h-12.1m-12.1 0h-12.08m-12.1 0h-12.08m-12.1 0h-12.08m-12.1 0h-12.08m-12.1 0h-12.08m-12.1 0h-12.1m-12.08 0h-12.1m-12.08 0h-12.1m-12.08 0h-12.1m-12.08 0h-12.1m-12.08 0h-12.1m-12.1 0h-12.08m-12.1 0h-12.08m-12.1 0h-12.08m-12.1 0h-12.08m-12.1 0h-12.08m-12.1 0h-12.1m-12.08 0h-12.1m-12.08 0h-12.1m-12.08 0h-12.1m-12.08 0h-12.1m-12.08 0h-12.1m-12.08 0h-12.1m-12.1 0H984.7m-12.1 0H960.5m-12.1 0h-12.08m-12.1 0h-12.08m-12.1 0h-12.08m-12.1 0h-12.1m-12.08 0h-12.1m-12.08 0h-12.1m-12.08 0h-12.1m-12.08 0h-12.1m-12.08 0h-12.1m-12.1 0H718.7m-12.1 0H694.5m-12.1 0h-12.08m-12.1 0h-12.08m-12.1 0H628a8 8 0 0 1-8-8v-5.92m0-11.83v-11.83m0-11.84v-11.83m0-11.83v-11.84m0-11.83v-11.83m0-11.84v-11.83m0-11.83v-11.84m0-11.83v-11.83m0-11.84v-11.83m0-11.83v-11.84m0-11.83v-11.83m0-11.84v-11.83m0-11.83V1188a8 8 0 0 1 8-8h6.04" stroke="#5a6c86" stroke-width="3" fill="none"/><use xlink:href="#d" transform="matrix(1,0,0,1,620,1200) translate(498.08641975308643 17.77777777777778)"/><path d="M620 768a8 8 0 0 1 8-8h1064a8 8 0 0 1 8 8v244a8 8 0 0 1-8 8H628a8 8 0 0 1-8-8z" fill="#fff" fill-opacity="0"/><path d="M646.14 760h12.1m12.08 0h12.1m12.08 0h12.1m12.08 0h12.1m12.08 0h12.1m12.08 0h12.1m12.1 0h12.08m12.1 0h12.08m12.1 0h12.08m12.1 0h12.08m12.1 0h12.08m12.1 0h12.1m12.08 0h12.1m12.08 0h12.1m12.08 0h12.1m12.08 0h12.1m12.1 0h12.08m12.1 0h12.08m12.1 0h12.08m12.1 0h12.08m12.1 0h12.08m12.1 0h12.1m12.08 0h12.1m12.08 0h12.1m12.08 0h12.1m12.08 0h12.1m12.08 0h12.1m12.1 0h12.08m12.1 0h12.08m12.1 0h12.08m12.1 0h12.08m12.1 0h12.08m12.1 0h12.1m12.08 0h12.1m12.08 0h12.1m12.08 0h12.1m12.08 0h12.1m12.08 0h12.1m12.1 0h12.08m12.1 0h12.08m12.1 0h12.08m12.1 0h12.08m12.1 0h12.08m12.1 0h6.04a8 8 0 0 1 8 8v6.1m0 12.2v12.2m0 12.2v12.2m0 12.2v12.2m0 12.2v12.2m0 12.2v12.2m0 12.2v12.2m0 12.2v12.2m0 12.2v12.2m0 12.2v12.2m0 12.2v6.1a8 8 0 0 1-8 8h-6.05m-12.1 0h-12.08m-12.1 0h-12.08m-12.1 0h-12.1m-12.08 0h-12.1m-12.08 0h-12.1m-12.1 0h-12.08m-12.1 0h-12.08m-12.1 0h-12.08m-12.1 0h-12.08m-12.1 0h-12.08m-12.1 0h-12.1m-12.08 0h-12.1m-12.08 0h-12.1m-12.08 0h-12.1m-12.08 0h-12.1m-12.08 0h-12.1m-12.1 0h-12.08m-12.1 0h-12.08m-12.1 0h-12.08m-12.1 0h-12.08m-12.1 0h-12.08m-12.1 0h-12.1m-12.08 0h-12.1m-12.08 0h-12.1m-12.08 0h-12.1m-12.08 0h-12.1m-12.08 0h-12.1m-12.08 0h-12.1m-12.1 0H984.7m-12.1 0H960.5m-12.1 0h-12.08m-12.1 0h-12.08m-12.1 0h-12.08m-12.1 0h-12.1m-12.08 0h-12.1m-12.08 0h-12.1m-12.08 0h-12.1m-12.08 0h-12.1m-12.08 0h-12.1m-12.1 0H718.7m-12.1 0H694.5m-12.1 0h-12.08m-12.1 0h-12.08m-12.1 0H628a8 8 0 0 1-8-8v-6.1m0-12.2v-12.2m0-12.2v-12.2m0-12.2v-12.2m0-12.2v-12.2m0-12.2v-12.2m0-12.2v-12.2m0-12.2v-12.2m0-12.2v-12.2m0-12.2v-12.2m0-12.2V768a8 8 0 0 1 8-8h6.04" stroke="#5a6c86" stroke-width="3" fill="none"/><use xlink:href="#e" transform="matrix(1,0,0,1,620,780) translate(493.7962962962963 17.77777777777778)"/><path d="M620 248a8 8 0 0 1 8-8h1064a8 8 0 0 1 8 8v454a8 8 0 0 1-8 8H628a8 8 0 0 1-8-8z" fill="#fff" fill-opacity="0"/><path d="M646.14 240h12.1m12.08 0h12.1m12.08 0h12.1m12.08 0h12.1m12.08 0h12.1m12.08 0h12.1m12.1 0h12.08m12.1 0h12.08m12.1 0h12.08m12.1 0h12.08m12.1 0h12.08m12.1 0h12.1m12.08 0h12.1m12.08 0h12.1m12.08 0h12.1m12.08 0h12.1m12.1 0h12.08m12.1 0h12.08m12.1 0h12.08m12.1 0h12.08m12.1 0h12.08m12.1 0h12.1m12.08 0h12.1m12.08 0h12.1m12.08 0h12.1m12.08 0h12.1m12.08 0h12.1m12.1 0h12.08m12.1 0h12.08m12.1 0h12.08m12.1 0h12.08m12.1 0h12.08m12.1 0h12.1m12.08 0h12.1m12.08 0h12.1m12.08 0h12.1m12.08 0h12.1m12.08 0h12.1m12.1 0h12.08m12.1 0h12.08m12.1 0h12.08m12.1 0h12.08m12.1 0h12.08m12.1 0h6.04a8 8 0 0 1 8 8v5.97m0 11.95v11.95m0 11.95v11.94m0 11.95v11.96m0 11.94v11.95m0 11.95v11.95m0 11.94v11.94m0 11.95v11.94m0 11.94v11.95m0 11.95v11.95m0 11.94v11.95m0 11.95v11.95m0 11.94v11.95m0 11.96v11.95m0 11.95v11.95m0 11.95v11.94m0 11.94v11.95m0 11.94v11.94m0 11.95v11.95m0 11.95V702a8 8 0 0 1-8 8h-6.05m-12.1 0h-12.08m-12.1 0h-12.08m-12.1 0h-12.1m-12.08 0h-12.1m-12.08 0h-12.1m-12.1 0h-12.08m-12.1 0h-12.08m-12.1 0h-12.08m-12.1 0h-12.08m-12.1 0h-12.08m-12.1 0h-12.1m-12.08 0h-12.1m-12.08 0h-12.1m-12.08 0h-12.1m-12.08 0h-12.1m-12.08 0h-12.1m-12.1 0h-12.08m-12.1 0h-12.08m-12.1 0h-12.08m-12.1 0h-12.08m-12.1 0h-12.08m-12.1 0h-12.1m-12.08 0h-12.1m-12.08 0h-12.1m-12.08 0h-12.1m-12.08 0h-12.1m-12.08 0h-12.1m-12.08 0h-12.1m-12.1 0H984.7m-12.1 0H960.5m-12.1 0h-12.08m-12.1 0h-12.08m-12.1 0h-12.08m-12.1 0h-12.1m-12.08 0h-12.1m-12.08 0h-12.1m-12.08 0h-12.1m-12.08 0h-12.1m-12.08 0h-12.1m-12.1 0H718.7m-12.1 0H694.5m-12.1 0h-12.08m-12.1 0h-12.08m-12.1 0H628a8 8 0 0 1-8-8v-5.97m0-11.95v-11.95m0-11.95v-11.94m0-11.95v-11.96m0-11.95v-11.95m0-11.95v-11.95m0-11.94v-11.94m0-11.95v-11.94m0-11.94v-11.95m0-11.95v-11.95m0-11.94v-11.95m0-11.95v-11.95m0-11.94V409.3m0-11.96V385.4m0-11.95V361.5m0-11.95V337.6m0-11.94V313.7m0-11.94v-11.94m0-11.95v-11.95m0-11.95V248a8 8 0 0 1 8-8h6.04" stroke="#5a6c86" stroke-width="3" fill="none"/><use xlink:href="#f" transform="matrix(1,0,0,1,620,260) translate(492.03703703703707 17.77777777777778)"/><path d="M1959.58 248a8 8 0 0 1 8-8h197.6a8 8 0 0 1 8 8v744a8 8 0 0 1-8 8h-197.6a8 8 0 0 1-8-8z" fill="#fff" fill-opacity="0"/><path d="M1986.1 240h12.36m12.35 0h12.36m12.35 0h12.36m12.35 0h12.36m12.35 0h12.36m12.35 0h12.36m12.35 0h12.36m12.35 0h6.18a8 8 0 0 1 8 8v6m0 12v12m0 12v12m0 12v12m0 12v12m0 12v12m0 12v12m0 12v12m0 12v12m0 12v12m0 12v12m0 12v12m0 12v12m0 12v12m0 12v12m0 12v12m0 12v12m0 12v12m0 12v12m0 12v12m0 12v12m0 12v12m0 12v12m0 12v12m0 12v12m0 12v12m0 12v12m0 12v12m0 12v12m0 12v12m0 12v12m0 12v6a8 8 0 0 1-8 8H2159m-12.34 0h-12.35m-12.34 0h-12.35m-12.34 0h-12.35m-12.34 0h-12.35m-12.34 0h-12.35m-12.34 0h-12.35m-12.34 0h-12.35m-12.34 0h-6.18a8 8 0 0 1-8-8v-6m0-12v-12m0-12v-12m0-12v-12m0-12v-12m0-12v-12m0-12v-12m0-12v-12m0-12v-12m0-12v-12m0-12v-12m0-12v-12m0-12v-12m0-12v-12m0-12v-12m0-12v-12m0-12v-12m0-12v-12m0-12v-12m0-12v-12m0-12v-12m0-12v-12m0-12v-12m0-12v-12m0-12v-12m0-12v-12m0-12v-12m0-12v-12m0-12v-12m0-12v-12m0-12v-12m0-12v-6a8 8 0 0 1 8-8h6.18" stroke="#5a6c86" stroke-width="3" fill="none"/><use xlink:href="#g" transform="matrix(1,0,0,1,1959.5833333333335,260) translate(86.29629629629629 21.333333333333336)"/><path d="M1100 532.5h120v120h-120v-120z" stroke="#fff" stroke-opacity="0" fill="#693cc5"/><path d="M1173.82 629.57l-2.85-1.5c1.6-3.02 2.7-5.73 3.64-9.04l3.1.9c-1.03 3.54-2.17 6.4-3.88 9.64zm2.98-29.3c-.57-9.4-3.23-17.23-8.43-25.06l2.66-1.72c5.55 8.28 8.37 16.64 8.97 26.58zm-21.1-38.62c-2.45-1.8-4.67-3.16-7.4-4.5l1.46-2.87c2.92 1.43 5.26 2.86 7.86 4.82zM1168.8 604.34c-5.3-5.27-10.82-8.73-17.87-11.2l1-3.04c7.5 2.63 13.38 6.3 19.03 11.92zM1182 623.44c-.6-1.6-1.28-3.07-2.02-4.56l2.87-1.42c.83 1.65 1.46 3.08 2.13 4.8z" stroke="#fff" stroke-opacity="0" fill="#fff"/><path d="M1172.9 630.34l-1-3.02c4.02-1.37 7.24-3.1 10.6-5.72l1.96 2.53c-3.66 2.85-7.15 4.73-11.55 6.2zM1122.04 591.7l-.73-3.1c3.76-.92 7-1.35 10.85-1.43l.07 3.2c-3.6.08-6.66.47-10.18 1.33zM1148.3 581.52l-2.7-1.75c2.47-4 5.06-7.1 8.6-10.23l2.1 2.42c-3.3 2.92-5.7 5.8-8 9.56zM1172.08 562.55l-1.1-3c2.55-.96 4.76-1.6 7.42-2.12l.6 3.2c-2.5.47-4.55 1.04-6.92 1.92zM1140.4 626.9c-2.75-6.38-4-12.25-4.1-19.2.05-2.67.34-4.95.98-7.54.1-.57.24-1.14.35-1.74l3.2.63c-.1.6-.23 1.16-.35 1.76-.6 2.38-.87 4.46-.92 6.9.07 6.53 1.23 12.05 3.8 18.06z" stroke="#fff" stroke-opacity="0" fill="#fff"/><path d="M1160 632.5c-22.08 0-40-17.94-40-39.97 0-.88 0-1.6.08-2.5 1.04-17.05 12.08-31 28.48-35.87 10.8-3.2 21.2-2.1 30.96 3.44 19.28 10.8 26.16 35.17 15.36 54.47-2.72 4.9-5.92 8.65-10.4 12.1-7.36 5.6-15.2 8.33-24.48 8.33zm0-76.82c-3.76 0-6.96.48-10.48 1.6-15.12 4.57-25.28 17.3-26.24 33 0 .8-.08 1.53-.08 2.25 0 20.26 16.48 36.77 36.8 36.77 4.24 0 7.84-.56 11.84-2 4.08-1.37 7.28-3.05 10.64-5.7 9.36-7.2 14.32-17.3 14.32-29.07 0-20.35-16.48-36.85-36.8-36.85z" stroke="#fff" stroke-opacity="0" fill="#fff"/><path d="M1163.9 574c-3.93 0-7.1-3.2-7.1-7.1 0-3.9 3.17-7.1 7.1-7.1 3.9 0 7.08 3.2 7.08 7.1 0 3.93-3.16 7.1-7.08 7.1zm0-10.97c-2.15 0-3.9 1.74-3.9 3.88 0 2.17 1.75 3.9 3.9 3.9 2.13 0 3.87-1.73 3.87-3.9 0-2.13-1.74-3.87-3.88-3.87zM1142.06 596.3c-3.9 0-7.08-3.17-7.08-7.08 0-3.9 3.17-7.1 7.08-7.1 3.92 0 7.1 3.2 7.1 7.1-.02 3.9-3.18 7.07-7.1 7.1zm0-10.96c-2.14 0-3.88 1.74-3.88 3.88 0 2.14 1.74 3.88 3.88 3.88 2.14 0 3.9-1.74 3.9-3.88v-.03c0-2.16-1.76-3.9-3.9-3.9zM1177.25 616.82c-3.92 0-7.1-3.16-7.1-7.07-.02-3.92 3.15-7.1 7.07-7.1 3.9-.02 7.1 3.15 7.1 7.07v.03c0 3.9-3.16 7.07-7.07 7.07zm0-10.96h-.02c-2.14 0-3.88 1.75-3.88 3.9 0 2.14 1.74 3.87 3.88 3.87 2.14 0 3.9-1.73 3.9-3.88 0-2.14-1.74-3.9-3.88-3.9z" stroke="#fff" stroke-opacity="0" fill="#fff"/><use xlink:href="#h" transform="matrix(1,0,0,1,1070,661.5) translate(10.125 14.4)"/><use xlink:href="#i" transform="matrix(1,0,0,1,1070,661.5) translate(81.075 14.4)"/><path d="M720 532.5h120v120H720v-120z" stroke="#fff" stroke-opacity="0" fill="#693cc5"/><path d="M763.67 601.2c2.12.76 4.02 1.1 6.27 1.18 1.42.12 2.68-.23 3.86-1.07.92-.86 1.38-1.93 1.32-3.2.12-1.3-.3-2.47-1.25-3.4-1.26-.84-2.58-1.17-4.1-1.05-1.8.02-3.33.1-5.1.32v-2.26l.62-9.87h12.03v2.66H768l-.43 6.7c1.1-.22 2.06-.3 3.2-.3 2.12-.15 3.96.48 5.58 1.86 1.43 1.4 2.12 3.17 2 5.18.07 2.08-.73 3.9-2.33 5.23-1.82 1.45-3.85 2.1-6.18 2-2.3 0-4.2-.38-6.3-1.32zM789.8 591.6H790.4c1.98-.14 3.72.42 5.25 1.7 1.37 1.3 2.02 2.93 1.9 4.8.07 2.06-.75 3.83-2.35 5.14-1.87 1.4-3.9 2.04-6.26 1.92-2.2 0-4.1-.42-6.12-1.3v-2.65c2.06.76 3.92 1.1 6.12 1.18 1.45.12 2.7-.26 3.87-1.1.97-.84 1.44-1.94 1.35-3.2 0-2.67-1.66-4-5.03-4-1.12 0-2.08.04-3.2.16v-2.18l6.94-7.55h-9.7v-2.7h13.44v2.62z" stroke="#fff" stroke-opacity="0" fill="#fff"/><path d="M780 622.9c-.3 0-.57-.06-.82-.24-5.44-3.2-10.55-5.15-16.76-6.4-3.4-.58-14.4-3.2-14.4-11.18 0-3.62 1.42-6.04 3.2-9.06 2.76-4.1 4.17-8.23 4.36-13.15 0-4.74-1.22-8.7-3.84-12.67-.38-.6-.32-1.3.13-1.9l2.56-3.2c.5-.6 1.34-.76 2.04-.35 3.46 2 6.78 2.9 10.8 2.96 4.42.07 8.2-1.1 11.78-3.72.57-.4 1.34-.4 1.85 0 3.65 2.6 7.42 3.8 11.83 3.73 3.97-.05 7.36-1 10.8-2.95.72-.4 1.55-.24 2.06.36l2.55 3.2c.45.54.5 1.3.13 1.9-2.63 3.9-3.78 7.93-3.84 12.67 0 5.68 2.3 9.6 4.35 13.15 1.78 3.02 3.18 5.44 3.18 9.06 0 8-11 10.6-14.38 11.2-6.2 1.23-11.33 3.13-16.76 6.38-.26.18-.5.24-.83.24zm-24.93-53.6c2.5 4.27 3.64 8.48 3.64 13.4 0 6.57-2.6 11.13-4.78 14.74-1.6 2.84-2.7 4.73-2.7 7.46 0 5.68 9.8 7.76 11.7 8.1 6.34 1.25 11.46 3.2 17.02 6.4 5.57-3.2 10.75-5.14 17-6.4 2-.34 11.78-2.42 11.78-8.1 0-2.73-1.1-4.62-2.75-7.46-2.1-3.6-4.8-8.17-4.8-14.75.07-4.92 1.22-9.13 3.78-13.4l-1.02-1.23c-3.58 1.83-7.1 2.72-11.2 2.72-4.73.05-8.76-1.07-12.8-3.68-3.95 2.6-8.04 3.73-12.78 3.67-4.1 0-7.54-.9-11.2-2.73z" stroke="#fff" stroke-opacity="0" fill="#fff"/><path d="M780.03 632.5c-.4 0-.72-.08-1.04-.32-5.68-4.08-11.2-6.56-18-8-13.18-2.4-21.02-9.67-21.02-19.26.16-4.88 1.44-9.04 4.24-13.12 1.76-2.95 3.2-5.5 3.2-9.03-.16-4.88-2.16-8.95-5.84-12.23-.72-.48-.88-1.52-.32-2.24.08 0 .08-.08.08-.08 0-.16 9.43-11.43 11.6-14.3.23-.5.7-.73 1.2-.73.55 0 .95.15 1.35.55 3.03 3.6 6.95 5.6 11.74 5.84 4.48 0 8-2 11.35-6.4.63-.73 1.75-.9 2.47-.25l.24.24c3.37 4.47 6.88 6.38 11.36 6.38 4.8-.24 8.72-2.23 11.75-5.83.4-.4.8-.56 1.37-.56.48 0 .96.23 1.2.7 2.16 2.9 11.5 14.16 11.6 14.32.23.32.4.72.3 1.2 0 .48-.23.8-.55 1.12-3.68 3.28-5.67 7.35-5.83 12.23 0 3.52 1.5 6.08 3.18 9.03 2.8 4.08 4.08 8.24 4.24 13.12 0 9.6-7.83 16.87-21.02 19.26-6.8 1.44-12.3 3.84-18 8-.23.16-.55.32-.87.32zm-35.1-63.4c3.85 3.84 5.77 8.3 5.85 13.67 0 4.4-1.84 7.6-3.68 10.7-1.92 3.45-3.76 6.57-3.76 11.53 0 11.67 14 15.1 18.23 15.9 6.95 1.45 12.63 3.85 18.46 7.84 5.76-4 11.43-6.4 18.4-7.83 4.22-.8 18.2-4.23 18.2-15.9 0-4.96-1.83-8-3.74-11.52-1.85-3.2-3.7-6.4-3.7-10.7.1-5.37 2-9.84 5.84-13.68-2.15-2.56-6.95-8.4-9.5-11.67-3.6 3.5-7.84 5.35-12.8 5.5-5.2 0-9.6-2.15-12.8-6.14-3.27 3.98-7.66 6.14-12.86 6.14-4.95-.16-9.2-2-12.8-5.5-2.3 3.26-7.18 9.1-9.34 11.66z" stroke="#fff" stroke-opacity="0" fill="#fff"/><use xlink:href="#h" transform="matrix(1,0,0,1,690,661.5) translate(18.049999999999997 14.4)"/><use xlink:href="#j" transform="matrix(1,0,0,1,690,661.5) translate(89 14.4)"/><use xlink:href="#k" transform="matrix(1,0,0,1,690,661.5) translate(141.95 14.4)"/><path d="M1092.75 305h120v120h-120V305z" stroke="#000" stroke-opacity="0" fill="#dd344c"/><path d="M1146.28 363.9c.42.4.5.94.42 1.4l-1.5 7.1 6.8-4.2c.4-.24 1.08-.24 1.5 0l6.8 4.2-1.5-7.1c-.1-.53 0-1 .42-1.4l6.04-5.92-7.9-1.17c-.5 0-.92-.3-1.17-.77l-3.45-7.18-3.6 7.18c-.18.47-.6.78-1.1.86l-7.9 1.08 6.13 5.93zm-4.8 11.32l2.1-9.75-7.72-7.4c-.42-.4-.5-1.03-.33-1.57.17-.55.6-.94 1.17-1.02l10.17-1.48 4.53-9.2c.26-.47.76-.86 1.35-.78.6 0 1.1.3 1.34.78l4.44 9.2 10.17 1.48c.5.08 1.02.47 1.18 1.02.17.54.1 1.1-.33 1.48l-7.65 7.5 2.02 9.66c.17.62-.08 1.25-.6 1.56-.5.4-1.16.4-1.67.08l-8.9-5.54-9 5.54c-.24.15-.5.23-.83.23-.25 0-.6-.07-.84-.3-.5-.3-.67-.94-.6-1.48zm-27.7-38.7h77.94v-7.56h-77.95v7.57zm80.97-9.04v75.04c0 .78-.67 1.48-1.5 1.48h-9v-2.96h7.47V339.5h-77.95v61.54h56.95V404h-58.46c-.84 0-1.5-.7-1.5-1.48v-75.04c0-.78.66-1.48 1.5-1.48h80.98c.84 0 1.5.7 1.5 1.48zm-66.03 66h9v-2.97h-9v2.97zm15.04 0h21v-2.97h-21v2.97zm-15.04-7.5h9v-2.96h-9v2.96zm15.04 0h33v-2.96h-33v2.96z" stroke="#000" stroke-opacity="0" fill="#fff"/><use xlink:href="#l" transform="matrix(1,0,0,1,1062.7479941963238,434) translate(26.949999999999996 14.4)"/><use xlink:href="#m" transform="matrix(1,0,0,1,1062.7479941963238,434) translate(72.25 14.4)"/><use xlink:href="#n" transform="matrix(1,0,0,1,1062.7479941963238,434) translate(26.14999999999999 36)"/><use xlink:href="#o" transform="matrix(1,0,0,1,1062.7479941963238,434) translate(102.05 36)"/><path d="M1480 535h115v115h-115V535z" stroke="#fff" stroke-opacity="0" stroke-width="2" fill="#3f8624"/><path d="M1574.2 596.4c-.45-2.4-3.17-4.08-5.08-5.3-.58-.4-2.2-1-2.35-1.54 0-.4 0-.77.15-1.15l1.54-10.97 1.33-9.75c.35-2.92-1.04-4.92-3.47-6.6-4.92-3.46-11.4-4.84-17.2-5.76-7.63-1.23-14.32-1.46-22.03-.7-6.98.47-12.8 1.85-19.25 4.6-3.24 1.55-7.57 3.93-6.98 8.07 1.47 12.43 3.3 24.87 5 37.3.73 5.7 1.54 11.37 2.27 17.05.3 2.38 1.62 4.22 3.82 5.14 4.7 2.53 10.58 3.3 15.94 3.75 7.42.7 13.74.47 21.1-.92 4.4-.76 12.63-2.15 13.36-7.67.88-6.84 1.84-13.67 2.72-20.5l.37-2.08c2.5.62 9.63 1.92 8.74-3zm-38.95-39.16c9.26 0 19.77 1.07 28 5.6 1.32.7 4.26 2.23 3.38 4.14-.9 1.85-3.68 2.77-5.37 3.46-2.5.92-4.77 1.54-7.42 2.07-11.46 2.32-21.6 2.55-33.2.7-5.23-.53-9.56-1.84-14.26-4.14-1.1-.7-2.94-1.77-2.43-3.3.37-.85.96-1.46 1.76-1.92 3.62-2.3 6.92-3.7 11.1-4.46 6.33-1.53 11.9-2.22 18.45-2.14zm24.1 64.64c-.3 1.76-3.23 2.7-4.63 3.15-3.08 1.07-5.8 1.7-9.04 2.07-7.12.92-13.3.92-20.5 0-4.48-.38-8.22-1.38-12.27-3.38-1.1-.46-1.75-1.46-1.82-2.6-1.54-12.22-3.23-24.35-4.92-36.48l-1.77-13.2c3.67 2 7.05 3.22 11.16 3.9 4.48.93 8.23 1.4 12.8 1.7 8.8.62 16.37.23 25.1-1.38 4.64-.7 8.46-2 12.58-4.22l-3.24 24.03c-8.22-2.7-14.98-5.38-22.7-9.14-.37-.15-.66-.3-.95-.46-.45-.3-.3-.15-.52-.6-.37-.93-.44-1.55-1.25-2.3-.73-.55-1.54-.78-2.42-.7-1.9.07-3.38 1.76-3.24 3.68.15 1.84 1.84 3.3 3.75 3.15.52-.08.96-.23 1.55-.46.58-.16.58-.16 1.17.15 7.85 3.83 14.68 6.67 23 9.43 1.16.4 1.16 0 1.16 1-.07.77-.14 1.46-.3 2.23l-.94 7.3zm-23.66-36.3c0 .45-.6.37-.74.14-.22-.3.73-.7.73-.15zm30.2 10.73l.43-3.37c1.54.93 4.12 2.23 4.85 3.92-1.54.62-3.9-.15-5.3-.54z" stroke="#fff" stroke-opacity="0" stroke-width="2" fill="#fff"/><path d="M720 830h120v120H720V830z" stroke="#fff" stroke-opacity="0" stroke-width="2" fill="#3b48cc"/><path d="M800.4 894.78l-10.6 10.55c2-.56 3.65-1.2 5.5-2.24 1.1.63 1.68 1.67 1.9 2.87 0 2.96-6.2 6.16-15.4 7.43-3.05.4-5.55.57-8.6.57h-1.58c-12.95-.25-22.42-4.32-22.42-8 .17-1.2.82-2.16 1.9-2.88 5 2.8 13.18 4.47 22.1 4.47h.17l.92-3.2h-1.1c-8.8 0-16.98-1.76-21.28-4.47-1.74-1.12-2.72-2.4-2.72-3.44v-7.44c4.9 3.76 14.64 5.68 24 5.68 1.25 0 2.5 0 3.76-.08l.92-3.2c-1.63.08-3.1.16-4.68.16-13.7 0-24-4.23-24-8 .17-1.27.82-2.23 1.9-2.87 4.42 2.5 11.22 4 18.9 4.4l.1-3.2c-7.56-.4-14.42-2-18.18-4.47-1.74-1.03-2.66-2.3-2.72-3.43v-7.36c4.9 3.76 14.64 5.68 24 5.68h.33l1.74-3.2h-2.07c-13.7 0-24-4.16-24-8 0-3.75 10.3-8 24-8 4.85 0 8.98.5 13.72 1.6h8.8c-4.83-2.95-13.1-4.78-22.52-4.78-13.17 0-27.2 3.9-27.2 11.2V874c.1 1.9.92 3.5 2.44 4.7-1.52 1.3-2.34 2.9-2.45 4.8v12.8c.1 2 .92 3.6 2.44 4.88-1.52 1.2-2.34 2.8-2.45 4.8v13.1c.43 7.03 14.2 10.8 27.2 10.8s26.78-3.76 27.2-10.88V905.88c-.04-1.9-.9-3.6-2.44-4.78 1.53-1.2 2.34-2.88 2.45-4.8zm-3.2 23.98c0 3.76-10.28 8-24 8-13.7 0-24-4.16-24-8v-7.35c4.9 3.68 14.64 5.68 24 5.68s19.1-2 24-5.67z" stroke="#fff" stroke-opacity="0" stroke-width="2" fill="#fff"/><path d="M756 874.03c0 1.1-.9 2-2 2s-2-.9-2-2 .9-2 2-2 2 .9 2 2zM756 896.43c0 1.1-.9 2-2 2s-2-.9-2-2 .9-2 2-2 2 .9 2 2zM756 918.83c0 1.1-.9 2-2 2s-2-.9-2-2 .9-2 2-2 2 .9 2 2zM777.2 912.37c-.3 0-.53-.06-.82-.22-.64-.38-.92-1.14-.72-1.85l9-29.95h-9.08c-.88.06-1.6-.65-1.6-1.58 0-.27.04-.54.2-.76l9.58-19.2c.28-.55.8-.88 1.45-.88H806c.9-.06 1.62.65 1.66 1.52.04.22 0 .38-.04.6l-4.13 12.25h8.97c.88.05 1.6.75 1.6 1.63 0 .43-.16.76-.44 1.1l-35.2 36.8c-.32.38-.72.54-1.24.54zm1-35.18h8.6c.53 0 .97.2 1.3.6.27.43.4.92.23 1.4l-7.7 25.6 28.03-29.24h-7.46c-.88 0-1.64-.65-1.68-1.52 0-.22 0-.44.08-.6l4.1-12.3h-17.6z" stroke="#fff" stroke-opacity="0" stroke-width="2" fill="#fff"/><use xlink:href="#h" transform="matrix(1,0,0,1,690,959) translate(8.599999999999994 14.4)"/><use xlink:href="#p" transform="matrix(1,0,0,1,690,959) translate(79.55 14.4)"/><path d="M1480 830h120v120h-120V830z" stroke="#fff" stroke-opacity="0" fill="#693cc5"/><path d="M1557.6 928.42c-.35 0-.64-.15-.93-.3-.43-.3-.67-.77-.67-1.3v-73.63c0-.55.3-1.1.77-1.4.48-.3 1.08-.3 1.6-.07l20.8 10.22c.56.23.9.77.9 1.38v56.56c.02.76-.4 1.37-1.1 1.6l-20.8 6.92h-.56zm1.63-72.62v68.78l17.6-5.84v-54.4zM1522.4 928.42h-.52l-20.8-6.92c-.67-.23-1.1-.92-1.08-1.6v-56.57c0-.6.33-1.15.9-1.38l20.8-10.22c.52-.23 1.1-.23 1.6.08.48.32.75.85.75 1.4v73.6c0 .54-.24 1-.67 1.3-.3.24-.6.32-1 .32zm-19.2-9.6l17.6 5.83V855.8l-17.6 8.6z" stroke="#fff" stroke-opacity="0" fill="#fff"/><path d="M1556 874h-4.8v-3.2h4.8zm-9.6 0h-4.8v-3.2h4.8zm-9.6 0h-4.8v-3.2h4.8zm-9.6 0h-4.8v-3.2h4.8zM1556 909.2h-4.8V906h4.8zm-9.6 0h-4.8V906h4.8zm-9.6 0h-4.8V906h4.8zm-9.6 0h-4.8V906h4.8zM1532.97 895.5l-6-5.13c-.68-.57-.76-1.6-.2-2.26l.2-.17 6-5.13 2.07 2.43-4.58 3.97 4.58 3.92zM1547.04 895.5l-2.08-2.42 4.57-3.88-4.6-3.9 2.1-2.5 6 5.12c.68.57.76 1.6.2 2.26-.07.07-.12.12-.2.17z" stroke="#fff" stroke-opacity="0" fill="#fff"/><path d="M1535.3 898.87l6.35-18.8 3.03 1.03-6.35 18.8-3.04-1.03z" stroke="#fff" stroke-opacity="0" stroke-width=".32" fill="#fff"/><use xlink:href="#h" transform="matrix(1,0,0,1,1450,959) translate(2.049999999999997 14.4)"/><use xlink:href="#q" transform="matrix(1,0,0,1,1450,959) translate(73 14.4)"/><use xlink:href="#r" transform="matrix(1,0,0,1,1450,959) translate(107 14.4)"/><path d="M1199.9 940.05h-20.22c-1 0-1.96-.6-2.36-1.53l-28.35-60.76h-11.44c-1.42 0-2.64-1.2-2.64-2.64V857.6c0-1.46 1.2-2.65 2.63-2.65h25.24c1.08 0 1.96.6 2.37 1.53l28.28 60.76h6.5c1.4 0 2.63 1.2 2.63 2.73v17.44c0 1.46-1.2 2.65-2.64 2.65zm-18.6-5.36h15.9v-12.1h-5.47c-1.02 0-1.96-.6-2.37-1.52l-28.2-60.86h-20.92v12.17h10.42c1.08 0 2.03.6 2.43 1.53z" stroke="#fff" stroke-opacity="0" fill="#d86613"/><path d="M1145.02 940.05h-21.6c-1.44 0-2.64-1.2-2.64-2.68 0-.42.08-.74.27-1.1l22.57-47.3c.47-.95 1.36-1.52 2.4-1.52 1.05 0 1.94.52 2.4 1.47l10.8 22.36c.35.73.35 1.52 0 2.26l-11.8 25c-.47.94-1.36 1.5-2.4 1.5zm-17.35-5.3h15.64l10.66-22.32-7.98-16.2z" stroke="#fff" stroke-opacity="0" fill="#d86613"/><path d="M1162.5 965c-34.5 0-62.5-28-62.5-62.5s28-62.5 62.5-62.5 62.5 28 62.5 62.5-28 62.5-62.5 62.5zm0-119.63c-31.63 0-57.13 25.5-57.13 57.13 0 31.63 25.5 57.13 57.13 57.13 31.63 0 57.13-25.5 57.13-57.13 0-31.63-25.5-57.13-57.13-57.13z" stroke="#fff" stroke-opacity="0" fill="#d86613"/><use xlink:href="#s" transform="matrix(1,0,0,1,1070,974) translate(23.07499999999999 14.4)"/><use xlink:href="#t" transform="matrix(1,0,0,1,1070,974) translate(93.02499999999999 14.4)"/><path d="M795 1278.56c-41.4 0-75 26.14-75 58.35 0 32.33 33.6 58.35 75 58.35 41.55 0 75-26.13 75-58.34 0-32.32-33.45-58.34-75-58.34zm19.8 109v-9.8c0-3.98-2.85-7.36-6.75-9.58h.75c7.2-.58 13.35-2.33 13.35-2.33s9.15-2.22 14.25-6.77c5.25-5.02 6.75-12.02 6.75-12.02s1.5-7.7 0-13.9c-1.5-5.7-7.5-10.02-7.5-10.02s1.95-4.1 1.65-8.05c0-3.98-2.4-7.95-2.4-7.95s-4.35-.35-9.15 1.17c-5.55 1.87-11.85 5.25-11.85 5.25s-4.35-1.17-9.45-1.52c-4.65-.7-10.2-.7-10.2-.7s-5.55 0-10.35.7c-5.1.6-9.45 1.52-9.45 1.52s-6.3-3.38-11.85-5.25c-4.65-1.52-9-1.17-9-1.17s-2.4 3.97-2.4 7.94c0 4.07 1.5 8.04 1.5 8.04s-5.4 3.97-7.35 10.03c-2.1 6.2 0 13.9 0 13.9s1.05 7 6.6 12c5.25 4.56 14.25 6.78 14.25 6.78s6.3 1.75 13.35 2.33h1.2c-2.7 2.22-5.55 5.6-5.55 9.57v9.8c-27.9-6.42-48.15-26.72-48.15-50.64 0-29.16 30.45-52.74 67.95-52.74s68.4 23.58 68.4 52.75c0 23.93-20.55 44.23-48.6 50.65z" stroke="#000" stroke-opacity="0" fill="#0078d7"/><use xlink:href="#u" transform="matrix(1,0,0,1,690,1404.2529736540769) translate(77.05 14.4)"/><path d="M2081.27 611.76l37.06-22.3v-44.6l-37.06 22.3v44.6z" stroke="#000" stroke-opacity="0" stroke-width="1.72" fill="#4040b2"/><path d="M2040.28 544.85l36.94 22.3v44.62l-36.94-22.3m-41.1-24.86l37.05 22.32v-44.6L1999.17 520m41.1 118.87l36.95 22.3v-44.6l-36.94-22.3" stroke="#000" stroke-opacity="0" stroke-width="1.72" fill="#5c4ee5"/><path d="M1939.58 657.4a8 8 0 0 1 8-8h244a8 8 0 0 1 8 8V712a8 8 0 0 1-8 8h-244a8 8 0 0 1-8-8z" fill="none"/><use xlink:href="#v" transform="matrix(1,0,0,1,1939.5833333333335,649.4117647058824) translate(91.625 39.1)"/><path d="M1537.5 1376.23l19.1-19.1 3.67 3.7-20.93 20.93c-.46.57-1.15.8-1.84.8-.7 0-1.38-.23-1.84-.8l-10.47-10.47 3.67-3.7 8.63 8.63zm51.17 10l-32.43-46.57c-.34-.46-.45-1.03-.45-1.5v-39.2c0-1.5 1.13-2.65 2.52-2.65h.1c1.4 0 2.65-1.14 2.65-2.63 0-1.38-1.26-2.65-2.64-2.65h-26.1c-1.5 0-2.65 1.27-2.65 2.64 0 1.5 1.15 2.65 2.64 2.65 1.38 0 2.54 1.16 2.54 2.65v39.22c0 .46-.12 1.03-.46 1.5l-32.44 46.57c-1.26 1.95-1.5 4.25-.45 6.2 1.15 1.96 3.1 3.23 5.3 3.23h77.05c2.18 0 4.25-1.27 5.3-3.22 1.02-1.96.8-4.26-.48-6.2zm-92.23-.57c.23-.8.7-1.6 1.15-2.3l13.8-19.77v-59.47c0-1.38 1.14-2.65 2.52-2.65 1.5 0 2.65-1.14 2.65-2.53 0-1.5-1.15-2.64-2.64-2.64h-26.1c-1.4 0-2.65 1.16-2.65 2.65 0 1.38 1.26 2.53 2.64 2.53 1.5 0 2.64 1.27 2.64 2.65v73.7c0 3.7 2.42 6.9 5.98 7.84zm97.3 9.2c-1.96 3.7-5.76 6-9.9 6h-77.04c-4.14 0-7.94-2.3-9.9-6-.57-1.26-1.03-2.52-1.14-3.9-6.1-1.38-10.6-6.8-10.6-13.12v-71.52c-2.98-1.04-5.16-4.03-5.16-7.37 0-4.37 3.57-7.93 7.82-7.93h26.1c4.38 0 7.94 3.57 7.94 7.93 0 3.34-2.18 6.33-5.3 7.37v49.8l13.12-18.87v-36.22c-3.1-1.04-5.3-3.9-5.3-7.37 0-4.25 3.57-7.82 7.94-7.82h26.1c4.26 0 7.83 3.57 7.83 7.83 0 3.44-2.18 6.32-5.3 7.47v36.1l32.1 46.13c2.3 3.33 2.64 7.82.68 11.5zm-100.63-55.2l4.15-4.13-4.14-4.14 3.7-3.7 4.13 4.14 4.14-4.13 3.68 3.68-4.14 4.14 4.15 4.14-3.68 3.68-4.14-4.13-4.14 4.14-3.7-3.67z" stroke="#000" stroke-opacity="0" fill="#01a88d"/><use xlink:href="#w" transform="matrix(1,0,0,1,1450,1409.8445945945946) translate(59.05 14.4)"/><path d="M149.28 642.68h-36.3c-1.66 0-2.98-1.15-2.98-2.55v-3.8c0-14.25 10.9-26.18 27.1-29.52.75-.13 1.44-.06 2.13.26 4.77 2.2 9.93 2.2 14.7 0 .7-.32 1.38-.4 2.12-.25 4.25.9 7.76 2.2 11.37 4.3l-3.33 4.23c-2.7-1.5-5.23-2.52-8.4-3.24-6.02 2.37-12.22 2.37-18.25 0-12.92 3.08-21.48 12.75-21.48 24.22v1.25h33.3z" stroke="#fff" stroke-opacity="0" fill="#666"/><path d="M146.53 613.7c-10.8 0-19.54-7.5-19.54-16.73s8.74-16.72 19.53-16.72c10.8-.1 19.6 7.33 19.7 16.52.1 6.4-3.68 11.84-10.24 14.85-3.03 1.44-5.97 2.08-9.47 2.08zm0-28.36c-7.53 0-13.7 5.18-13.74 11.63 0 4.4 2.6 8.13 7.1 10.2 4.28 1.98 9 1.98 13.27 0 4.55-2.1 7.18-5.9 7.1-10.36-.08-6.38-6.24-11.5-13.74-11.43zM247.06 642.68h-36.3v-5.1h33.3v-1.26c0-11.5-8.56-21.16-21.45-24.24-6.03 2.4-12.25 2.4-18.3 0-3.16.75-5.74 1.8-8.45 3.4l-3.4-4.2c3.63-2.15 7.14-3.5 11.4-4.45.75-.14 1.5-.07 2.2.25 4.7 2.2 9.94 2.2 14.72 0 .7-.32 1.38-.4 2.13-.25 16.17 3.34 27.1 15.27 27.1 29.5v3.8c0 1.4-1.32 2.5-2.94 2.55z" stroke="#fff" stroke-opacity="0" fill="#666"/><path d="M213.4 613.7c-10.88 0-19.66-7.6-19.66-16.9 0-9.3 8.86-16.8 19.73-16.8 10.88 0 19.66 7.58 19.66 16.88 0 6.34-3.74 11.73-10.24 14.76-3.08 1.42-6.04 2.06-9.5 2.06zm0-28.34c-7.53-.04-13.68 5.15-13.72 11.62-.03 4.38 2.57 8.12 7.1 10.18 4.25 2 8.98 2 13.27 0 4.6-2.1 7.25-5.93 7.17-10.4-.16-6.4-6.34-11.54-13.82-11.4zM227.58 700H132.3c-1.62 0-2.93-1.12-2.93-2.54v-5.42c-.1-19.62 15.07-36.12 37.32-40.76.8-.2 1.5-.1 2.22.2 7.08 3.27 14.86 3.27 22.05 0 .6-.3 1.3-.4 2.12-.2 22.34 4.6 37.5 21.1 37.4 40.76v5.42c0 1.42-1.3 2.54-2.92 2.54zm-92.24-5.08h89.2v-2.88c0-16.9-12.74-31.1-31.86-35.5-8.4 3.48-17.2 3.48-25.6 0-19.1 4.4-31.74 18.6-31.74 35.5z" stroke="#fff" stroke-opacity="0" fill="#666"/><path d="M180.04 658.96c-4.72 0-8.75-.87-12.93-2.8-12.97-6.1-17.75-20-10.67-31.15 7.14-11.1 23.4-15.17 36.43-9.12 12.98 6.1 17.76 20 10.68 31.15-2.58 4.04-5.96 6.93-10.68 9.13-4.13 1.93-8.15 2.8-12.82 2.8zm0-40.14c-7.78-.1-14.5 3.26-18.24 9.13-5.37 8.5-1.72 19.13 8.2 23.76 6.44 2.95 13.53 2.95 19.96 0 6.92-3.2 10.9-8.93 10.8-15.63-.17-9.64-9.45-17.4-20.72-17.25z" stroke="#fff" stroke-opacity="0" fill="#666"/><path d="M247.86 642.68h-69.5c-1.2 0-2.15-.82-2.15-1.86v-3.95c-.06-14.32 11-26.36 27.24-29.74.6-.14 1.1-.07 1.62.14 5.17 2.4 10.85 2.4 16.1 0 .43-.2.95-.28 1.54-.14 16.3 3.35 27.37 15.4 27.3 29.74v3.95c0 1.04-.96 1.86-2.14 1.86zm-67.3-3.7h65.1v-2.1c0-12.33-9.3-22.7-23.26-25.9-6.12 2.53-12.54 2.53-18.67 0-13.94 3.2-23.17 13.57-23.17 25.9z" stroke="#fff" stroke-opacity="0" stroke-width=".73" fill="#fff" fill-opacity="0"/><path d="M181.65 642.68h-69.5c-1.2 0-2.15-.82-2.15-1.86v-3.95c-.07-14.32 11-26.36 27.23-29.74.6-.14 1.1-.07 1.62.14 5.17 2.4 10.85 2.4 16.1 0 .43-.2.95-.28 1.54-.14 16.3 3.35 27.37 15.4 27.3 29.74v3.95c0 1.04-.97 1.86-2.15 1.86zm-67.3-3.7h65.1v-2.1c0-12.33-9.3-22.7-23.26-25.9-6.13 2.53-12.55 2.53-18.68 0-13.94 3.2-23.17 13.57-23.17 25.9z" stroke="#fff" stroke-opacity="0" stroke-width=".73" fill="#fff" fill-opacity="0"/><path d="M60 708a8 8 0 0 1 8-8h224a8 8 0 0 1 8 8v44a8 8 0 0 1-8 8H68a8 8 0 0 1-8-8z" fill="none"/><use xlink:href="#x" transform="matrix(1,0,0,1,60,700) translate(96.55 33.6)"/><path d="M841 592.5h240.5" stroke="#333" stroke-width="2" fill="none"/><path d="M841.03 593.48H840v-1.96h1.03z" stroke="#333" stroke-width=".05" fill="#333"/><path d="M1096.76 592.5l-14.26 4.63v-9.26z" stroke="#333" stroke-width="2" fill="#333"/><path d="M1153.72 514h-1.95v-37.4h1.95zm0-81h-1.95v-7h1.95z" stroke="#333" stroke-width=".05" fill="#333"/><path d="M1153.72 426.03h-1.95V425h1.95z" fill="#333"/><path stroke="#333" stroke-width=".05" fill="#333"/><path d="M1152.75 529.26L1148.1 515h9.28z" fill="#333"/><path d="M1152.75 532.42l-5.98-18.4h11.95zm-3.3-16.45l3.3 10.14 3.3-10.13z" stroke="#333" stroke-width=".05" fill="#333"/><path d="M1238.5 592.5h223" stroke="#333" stroke-width="2" fill="none"/><path d="M1223.24 592.5l14.26-4.63v9.26zM1476.76 592.5l-14.26 4.63v-9.26z" stroke="#333" stroke-width="2" fill="#333"/><path d="M1538.47 811.5h-1.94V695.02h1.94zm0-138.08h-1.94v-4.92h1.94z" stroke="#333" stroke-width=".05" fill="#333"/><path d="M1542.13 667.5h-9.27l4.64-14.26z" fill="#333"/><path d="M1543.48 668.48h-11.96l5.98-18.4zm-9.27-1.95h6.6l-3.3-10.14z" stroke="#333" stroke-width=".05" fill="#333"/><path d="M1537.5 826.76l-4.63-14.26h9.27z" fill="#333"/><path d="M1537.5 829.92l-5.98-18.4h11.96zm-3.3-16.45l3.3 10.14 3.3-10.13z" stroke="#333" stroke-width=".05" fill="#333"/><use xlink:href="#y" transform="matrix(1,0,0,1,1468.575,673.4207237496748) translate(0.0049999999999954525 14.4)"/><use xlink:href="#z" transform="matrix(1,0,0,1,1468.575,673.4207237496748) translate(27.004999999999995 14.4)"/><use xlink:href="#A" transform="matrix(1,0,0,1,1468.575,673.4207237496748) translate(76.955 14.4)"/><path d="M1461.5 890h-219.27" stroke="#333" stroke-width="2" fill="none"/><path d="M1476.76 890l-14.26 4.63v-9.26zM1226.96 890l14.27-4.63v9.26z" stroke="#333" stroke-width="2" fill="#333"/><path d="M1081.5 902.5h-223" stroke="#333" stroke-width="2" fill="none"/><path d="M1096.76 902.5l-14.26 4.63v-9.26zM843.24 902.5l14.26-4.63v9.26z" stroke="#333" stroke-width="2" fill="#333"/><path d="M180 612.14V572a12 12 0 0 1 12-12h476a12 12 0 0 1 12 12v8.5a12 12 0 0 0 12 12h9.5" stroke="#333" stroke-width="2" fill="none"/><path d="M180.97 613.17l-1.94-.06v-1h1.94z" stroke="#333" stroke-width=".05" fill="#333"/><path d="M716.76 592.5l-14.26 4.63v-9.26z" stroke="#333" stroke-width="2" fill="#333"/><path d="M1146.1 1280c-11.9 0-21.72 10.52-21.72 23.3 0 11.3 7.5 20.7 17.43 22.82v33.14c0 10.3 7.85 18.7 17.35 18.7h.2c1.05 7.83 7.42 14 15.05 14 8.35 0 15.24-7.4 15.24-16.35 0-8.95-6.9-16.34-15.25-16.34-7.63 0-14 6.16-15.04 14h-.2c-7.1 0-13.06-6.27-13.06-14v-23.5c3.02 3.24 6.57 4.92 10.86 4.92h2.4c1.04 7.83 7.4 14 15.04 14 7.62 0 14-6.17 15.03-14h9.1c1.03 7.83 7.4 14 15.03 14 8.35 0 15.24-7.4 15.24-16.35 0-8.96-6.9-16.35-15.24-16.35-7.63 0-14 6.16-15.04 14h-9.1c-1.03-7.84-7.4-14-15.03-14-7.63 0-14 6.16-15.04 14h-2.4c-5.23 0-9.6-4.04-10.66-9.3 11.9-.1 21.62-10.63 21.62-23.4 0-12.76-9.82-23.28-21.82-23.28zm0 4.7c9.6-.1 17.44 8.3 17.44 18.6s-7.73 18.68-17.34 18.68h-.1c-9.6 0-17.34-8.28-17.34-18.58v-.1c-.1-10.3 7.73-18.6 17.34-18.6zm-4.18 6.6c-2.3 0-4.5 1.9-4.5 4.6v14.9c0 3.57 3.87 5.8 6.7 3.9l11.06-7.38c2.72-1.68 2.72-6.05 0-7.84l-11.07-7.5c-.72-.56-1.45-.67-2.18-.67zm-.1 4.6l11.06 7.5-11.07 7.4v-14.9zm32.58 30.78c6.05-.1 10.86 5.15 10.86 11.53v.13c.1 6.38-4.8 11.64-10.76 11.64h-.1c-5.96 0-10.87-5.15-10.87-11.64 0-6.5 4.8-11.65 10.87-11.65zm39.15 0c6.06-.1 10.87 5.15 10.87 11.53v.13c.1 6.38-4.8 11.64-10.76 11.64h-.1c-5.96 0-10.87-5.15-10.87-11.64 0-6.5 4.8-11.65 10.86-11.65zm-34.66 6.05h-.02c-.62 0-1.14.22-1.56.67l-5.12 5.5-1.77-1.8c-.84-.9-2.2-.9-3.03 0-.84.9-.84 2.35 0 3.24l3.24 3.47c.83 1.02 2.2 1.02 3.02 0l6.7-7.04c.82-1 .82-2.46 0-3.36-.43-.45-.95-.67-1.47-.67zm39.14 0c-.62 0-1.14.22-1.56.67l-5.12 5.5-1.77-1.8c-.85-.9-2.2-.9-3.04 0-.84.9-.84 2.35 0 3.24l3.24 3.47c.83 1.02 2.2 1.02 3.02 0l6.7-7.04c.82-1 .82-2.46 0-3.36-.43-.45-.95-.67-1.47-.67zm-43.64 31.23c6.05 0 10.86 5.15 10.86 11.65.1 6.5-4.8 11.65-10.76 11.65h-.1c-5.96.1-10.87-5.15-10.87-11.53v-.1c0-6.4 4.8-11.66 10.87-11.66zm-4.4 8.17c-1.77 0-3.23 1.57-3.23 3.48 0 1.9 1.46 3.48 3.24 3.48 1.9 0 3.35-1.57 3.35-3.47 0-1.9-1.46-3.46-3.34-3.46zm8.78 0c-1.77 0-3.24 1.57-3.24 3.48 0 1.9 1.47 3.48 3.24 3.48 1.78 0 3.24-1.57 3.24-3.47 0-1.9-1.46-3.46-3.24-3.46zm-8.77 2.36c.64 0 1.16.43 1.16 1.1 0 .68-.52 1.24-1.15 1.24-.5 0-1.04-.56-1.04-1.23 0-.67.53-1.1 1.05-1.1zm8.78 0c.63 0 1.05.43 1.05 1.1 0 .68-.42 1.24-1.05 1.24-.63 0-1.15-.56-1.15-1.23 0-.67.52-1.1 1.15-1.1z" stroke="#000" stroke-opacity="0" stroke-width="1.17" fill="#2088ff"/><path d="M1213.56 1359.26c-7.63 0-14 6.16-15.04 14.1-.1 0-.2-.1-.2-.1l-2.2.1c-1.26.12-2.2 1.13-2.1 2.47 0 1.23 1.05 2.24 2.2 2.24l2.2-.1h.1c1.04 7.93 7.4 13.98 15.04 13.98 8.35 0 15.24-7.4 15.24-16.34 0-8.95-6.9-16.34-15.24-16.34zm0 4.7c6.05 0 10.86 5.15 10.86 11.65.1 6.5-4.8 11.65-10.76 11.65h-.1c-5.96.1-10.87-5.15-10.87-11.53v-.1c0-6.4 4.8-11.66 10.86-11.66z" stroke="#000" stroke-opacity="0" stroke-width="1.17" fill="#79b8ff"/><path d="M1072.16 1385.96a8 8 0 0 1 8-8H1292a8 8 0 0 1 8 8v79.62a8 8 0 0 1-8 8h-211.84a8 8 0 0 1-8-8z" fill="none"/><use xlink:href="#B" transform="matrix(1,0,0,1,1072.1621621621623,1377.9566916313904) translate(54.075 51.6)"/><use xlink:href="#C" transform="matrix(1,0,0,1,1072.1621621621623,1377.9566916313904) translate(114.975 51.6)"/><path d="M1957.08 620h-115.3a12 12 0 0 1-12-12V487a12 12 0 0 0-12-12H1720" stroke="#333" stroke-width="2" fill="none"/><path d="M1958.08 620.98h-1.02V619h1.02z" stroke="#333" stroke-width=".05" fill="#333"/><path d="M1704.74 475l14.26-4.63v9.26z" stroke="#333" stroke-width="2" fill="#333"/><path d="M1957.08 620h-115.3a12 12 0 0 0-12 12v246a12 12 0 0 1-12 12H1720" stroke="#333" stroke-width="2" fill="none"/><path d="M1958.08 620.98h-1.02V619h1.02z" stroke="#333" stroke-width=".05" fill="#333"/><path d="M1704.74 890l14.26-4.63v9.26z" stroke="#333" stroke-width="2" fill="#333"/><path d="M1099 635.77h-26.96l-1.76.14-1.7.42-1.58.66-1.48.9-1.3 1.13-1.14 1.32-.9 1.48-.66 1.6-.4 1.68-.14 1.76v81.2l-.16 2-.48 1.97-.78 1.9-1.06 1.73-1.32 1.55-1.55 1.32-1.74 1.06-1.9.78-1.97.48-2 .15H191.97l-2-.15-1.97-.48-1.9-.78-1.73-1.06-1.55-1.32-1.32-1.55-1.06-1.74-.78-1.9-.48-1.97-.16-2v-9.53h1.95v9.46l.14 1.76.42 1.7.66 1.58.9 1.48 1.13 1.3 1.32 1.14 1.48.9 1.6.66 1.68.4 1.76.14h855.92l1.76-.13 1.7-.42 1.58-.66 1.48-.9 1.3-1.13 1.14-1.32.9-1.48.66-1.6.4-1.68.14-1.76v-81.2l.16-2 .48-1.97.78-1.9 1.06-1.73 1.32-1.55 1.55-1.32 1.74-1.06 1.9-.78 1.97-.48 2-.15H1099z" stroke="#333" stroke-width=".05" fill="#333"/><path d="M1100 635.77h-1.03v-1.94h1.03z" fill="#333"/><path stroke="#333" stroke-width=".05" fill="#333"/><path d="M184.63 717.5h-9.26l4.63-14.26z" fill="#333"/><path d="M185.98 718.48h-11.96l5.98-18.4zm-9.27-1.95h6.6L180 706.4z" stroke="#333" stroke-width=".05" fill="#333"/><path d="M870.97 1335.97h252.34" stroke="#333" stroke-width="2" fill="none"/><path d="M871 1336.95h-1v-.04l-.06-1.9H871z" stroke="#333" stroke-width=".05" fill="#333"/><path d="M1138.58 1335.97l-14.27 4.64v-9.26z" stroke="#333" stroke-width="2" fill="#333"/><path d="M1229.5 1335.97h232" stroke="#333" stroke-width="2" fill="none"/><path d="M1229.52 1336.95h-.9l-.25-1.95h1.15z" stroke="#333" stroke-width=".05" fill="#333"/><path d="M1476.76 1335.97l-14.26 4.64v-9.26z" stroke="#333" stroke-width="2" fill="#333"/><path d="M1391.7 1384.24l1.97.47 1.88.8 1.74 1.05 1.54 1.33 1.32 1.55 1.07 1.73.78 1.88.48 1.98.16 2v31.8l.14 1.75.4 1.68.66 1.6.9 1.47 1.13 1.32 1.3 1.12 1.5.9 1.6.67 1.67.4 1.76.14h111.76l1.76-.14 1.7-.4 1.58-.66 1.48-.9 1.3-1.13 1.14-1.32.9-1.47.66-1.6.4-1.68.06-.72h1.96l-.08 1.03-.48 1.97-.78 1.9-1.06 1.72-1.32 1.55-1.55 1.32-1.74 1.07-1.9.8-1.97.46-2 .16h-111.9l-2-.16-1.98-.47-1.88-.8-1.74-1.06-1.54-1.32-1.34-1.55-1.06-1.73-.78-1.88-.48-1.98-.15-2v-31.8l-.15-1.75-.4-1.68-.67-1.6-.9-1.47-1.12-1.32-1.32-1.12-1.47-.9-1.6-.67-1.68-.4-1.78-.14h-145.3v-1.95h145.38zm146.77 24.6h-1.94v-7h1.94z" stroke="#333" stroke-width=".05" fill="#333"/><path d="M1538.47 1401.87h-1.94v-1.02h1.94z" fill="#333"/><path stroke="#333" stroke-width=".05" fill="#333"/><path d="M1243.33 1389.7l-14.27-4.65 14.27-4.63z" fill="#333"/><path d="M1244.3 1391.03l-18.4-5.98 18.4-5.97zm-12.08-5.98l10.13 3.3v-6.6zM1650.03 591.68l1.98.48 1.9.78 1.73 1.06 1.55 1.32 1.32 1.55 1.06 1.74.78 1.9.48 1.97.15 2v643.57l-.15 2-.48 1.97-.78 1.9-1.06 1.73-1.32 1.55-1.55 1.32-1.74 1.06-1.9.78-1.97.48-2 .15h-459.4l-1.77.14-1.68.42-1.6.66-1.47.9-1.3 1.13-1.13 1.32-.9 1.48-.66 1.6-.4 1.68-.14 1.76v49.16h-1.95v-49.24l.17-2 .47-1.97.78-1.9 1.07-1.73 1.3-1.55 1.56-1.32 1.74-1.06 1.88-.78 1.98-.48 2-.15h459.4l1.76-.14 1.7-.42 1.58-.66 1.48-.9 1.3-1.13 1.14-1.32.9-1.48.66-1.6.4-1.68.14-1.76V604.54l-.13-1.76-.42-1.7-.66-1.58-.9-1.48-1.13-1.3-1.32-1.14-1.48-.9-1.6-.66-1.68-.4-1.76-.14h-34.46v-1.96h34.54z" stroke="#333" stroke-width=".05" fill="#333"/><path d="M1177.56 1322.46l-1.35-.36-.6-.04v-.9h1.96z" fill="#333"/><path stroke="#333" stroke-width=".05" fill="#333"/><path d="M1612.5 597.13l-14.26-4.63 14.26-4.63z" fill="#333"/><path d="M1613.48 598.48l-18.4-5.98 18.4-5.98zm-12.1-5.98l10.15 3.3v-6.6z" stroke="#333" stroke-width=".05" fill="#333"/><defs><path fill="#666" d="M199 0l-22-63H83L61 0H9l90-248h61L250 0h-51zm-33-102l-36-108c-10 38-24 72-36 108h72" id="D"/><path fill="#666" d="M275 0h-61l-44-196L126 0H64L0-248h53L97-49l45-199h58l43 199 44-199h52" id="E"/><path fill="#666" d="M169-182c-1-43-94-46-97-3 18 66 151 10 154 114 3 95-165 93-204 36-6-8-10-19-12-30l50-8c3 46 112 56 116 5-17-69-150-10-154-114-4-87 153-88 188-35 5 8 8 18 10 28" id="F"/><g id="a"><use transform="matrix(0.04938271604938272,0,0,0.04938271604938272,0,0)" xlink:href="#D"/><use transform="matrix(0.04938271604938272,0,0,0.04938271604938272,11.80246913580247,0)" xlink:href="#E"/><use transform="matrix(0.04938271604938272,0,0,0.04938271604938272,28.543209876543205,0)" xlink:href="#F"/></g><path fill="#666" d="M67-125c0 53 21 87 73 88 37 1 54-22 65-47l45 17C233-25 199 4 140 4 58 4 20-42 15-125 8-235 124-281 211-232c18 10 29 29 36 50l-46 12c-8-25-30-41-62-41-52 0-71 34-72 86" id="G"/><path fill="#666" d="M25 0v-261h50V0H25" id="H"/><path fill="#666" d="M110-194c64 0 96 36 96 99 0 64-35 99-97 99-61 0-95-36-95-99 0-62 34-99 96-99zm-1 164c35 0 45-28 45-65 0-40-10-65-43-65-34 0-45 26-45 65 0 36 10 65 43 65" id="I"/><path fill="#666" d="M85 4C-2 5 27-109 22-190h50c7 57-23 150 33 157 60-5 35-97 40-157h50l1 190h-47c-2-12 1-28-3-38-12 25-28 42-61 42" id="J"/><path fill="#666" d="M88-194c31-1 46 15 58 34l-1-101h50l1 261h-48c-2-10 0-23-3-31C134-8 116 4 84 4 32 4 16-41 15-95c0-56 19-97 73-99zm17 164c33 0 40-30 41-66 1-37-9-64-41-64s-38 30-39 65c0 43 13 65 39 65" id="K"/><g id="b"><use transform="matrix(0.04938271604938272,0,0,0.04938271604938272,0,0)" xlink:href="#G"/><use transform="matrix(0.04938271604938272,0,0,0.04938271604938272,12.790123456790125,0)" xlink:href="#H"/><use transform="matrix(0.04938271604938272,0,0,0.04938271604938272,17.7283950617284,0)" xlink:href="#I"/><use transform="matrix(0.04938271604938272,0,0,0.04938271604938272,28.54320987654322,0)" xlink:href="#J"/><use transform="matrix(0.04938271604938272,0,0,0.04938271604938272,39.35802469135803,0)" xlink:href="#K"/></g><path fill="#147eba" d="M238-95c0 69-44 99-111 99C63 4 22-25 22-93v-155h51v151c-1 38 19 59 55 60 90 1 49-130 58-211h52v153" id="L"/><path fill="#147eba" d="M169-182c-1-43-94-46-97-3 18 66 151 10 154 114 3 95-165 93-204 36-6-8-10-19-12-30l50-8c3 46 112 56 116 5-17-69-150-10-154-114-4-87 153-88 188-35 5 8 8 18 10 28" id="M"/><path fill="#147eba" d="M14-72v-43h91v43H14" id="N"/><path fill="#147eba" d="M185-48c-13 30-37 53-82 52C43 2 14-33 14-96s30-98 90-98c62 0 83 45 84 108H66c0 31 8 55 39 56 18 0 30-7 34-22zm-45-69c5-46-57-63-70-21-2 6-4 13-4 21h74" id="O"/><path fill="#147eba" d="M133-34C117-15 103 5 69 4 32 3 11-16 11-54c-1-60 55-63 116-61 1-26-3-47-28-47-18 1-26 9-28 27l-52-2c7-38 36-58 82-57s74 22 75 68l1 82c-1 14 12 18 25 15v27c-30 8-71 5-69-32zm-48 3c29 0 43-24 42-57-32 0-66-3-65 30 0 17 8 27 23 27" id="P"/><path fill="#147eba" d="M137-138c1-29-70-34-71-4 15 46 118 7 119 86 1 83-164 76-172 9l43-7c4 19 20 25 44 25 33 8 57-30 24-41C81-84 22-81 20-136c-2-80 154-74 161-7" id="Q"/><path fill="#147eba" d="M115-3C79 11 28 4 28-45v-112H4v-33h27l15-45h31v45h36v33H77v99c-1 23 16 31 38 25v30" id="R"/><path fill="#147eba" d="M23 0v-37h61v-169l-59 37v-38l62-41h46v211h57V0H23" id="S"/><g id="c"><use transform="matrix(0.06172839506172839,0,0,0.06172839506172839,0,0)" xlink:href="#L"/><use transform="matrix(0.06172839506172839,0,0,0.06172839506172839,15.987654320987653,0)" xlink:href="#M"/><use transform="matrix(0.06172839506172839,0,0,0.06172839506172839,30.80246913580247,0)" xlink:href="#N"/><use transform="matrix(0.06172839506172839,0,0,0.06172839506172839,38.148148148148145,0)" xlink:href="#O"/><use transform="matrix(0.06172839506172839,0,0,0.06172839506172839,50.49382716049382,0)" xlink:href="#P"/><use transform="matrix(0.06172839506172839,0,0,0.06172839506172839,62.8395061728395,0)" xlink:href="#Q"/><use transform="matrix(0.06172839506172839,0,0,0.06172839506172839,75.18518518518518,0)" xlink:href="#R"/><use transform="matrix(0.06172839506172839,0,0,0.06172839506172839,82.53086419753086,0)" xlink:href="#N"/><use transform="matrix(0.06172839506172839,0,0,0.06172839506172839,89.87654320987654,0)" xlink:href="#S"/></g><path fill="#5a6c86" d="M24-248c120-7 223 5 221 122C244-46 201 0 124 0H24v-248zM76-40c74 7 117-18 117-86 0-67-45-88-117-82v168" id="T"/><path fill="#5a6c86" d="M185-48c-13 30-37 53-82 52C43 2 14-33 14-96s30-98 90-98c62 0 83 45 84 108H66c0 31 8 55 39 56 18 0 30-7 34-22zm-45-69c5-46-57-63-70-21-2 6-4 13-4 21h74" id="U"/><path fill="#5a6c86" d="M128 0H69L1-190h53L99-40l48-150h52" id="V"/><path fill="#5a6c86" d="M140-251c80 0 125 45 125 126S219 4 139 4C58 4 15-44 15-125s44-126 125-126zm-1 214c52 0 73-35 73-88 0-50-21-86-72-86-52 0-73 35-73 86s22 88 72 88" id="W"/><path fill="#5a6c86" d="M135-194c53 0 70 44 70 98 0 56-19 98-73 100-31 1-45-17-59-34 3 33 2 69 2 105H25l-1-265h48c2 10 0 23 3 31 11-24 29-35 60-35zM114-30c33 0 39-31 40-66 0-38-9-64-40-64-56 0-55 130 0 130" id="X"/><path fill="#5a6c86" d="M137-138c1-29-70-34-71-4 15 46 118 7 119 86 1 83-164 76-172 9l43-7c4 19 20 25 44 25 33 8 57-30 24-41C81-84 22-81 20-136c-2-80 154-74 161-7" id="Y"/><g id="d"><use transform="matrix(0.06172839506172839,0,0,0.06172839506172839,0,0)" xlink:href="#T"/><use transform="matrix(0.06172839506172839,0,0,0.06172839506172839,15.987654320987653,0)" xlink:href="#U"/><use transform="matrix(0.06172839506172839,0,0,0.06172839506172839,28.333333333333332,0)" xlink:href="#V"/><use transform="matrix(0.06172839506172839,0,0,0.06172839506172839,40.67901234567901,0)" xlink:href="#W"/><use transform="matrix(0.06172839506172839,0,0,0.06172839506172839,57.96296296296296,0)" xlink:href="#X"/><use transform="matrix(0.06172839506172839,0,0,0.06172839506172839,71.48148148148148,0)" xlink:href="#Y"/></g><path fill="#5a6c86" d="M182-130c37 4 62 22 62 59C244 23 116-4 24 0v-248c84 5 203-23 205 63 0 31-19 50-47 55zM76-148c40-3 101 13 101-30 0-44-60-28-101-31v61zm0 110c48-3 116 14 116-37 0-48-69-32-116-35v72" id="Z"/><path fill="#5a6c86" d="M133-34C117-15 103 5 69 4 32 3 11-16 11-54c-1-60 55-63 116-61 1-26-3-47-28-47-18 1-26 9-28 27l-52-2c7-38 36-58 82-57s74 22 75 68l1 82c-1 14 12 18 25 15v27c-30 8-71 5-69-32zm-48 3c29 0 43-24 42-57-32 0-66-3-65 30 0 17 8 27 23 27" id="aa"/><path fill="#5a6c86" d="M190-63c-7 42-38 67-86 67-59 0-84-38-90-98-12-110 154-137 174-36l-49 2c-2-19-15-32-35-32-30 0-35 28-38 64-6 74 65 87 74 30" id="ab"/><path fill="#5a6c86" d="M147 0L96-86 75-71V0H25v-261h50v150l67-79h53l-66 74L201 0h-54" id="ac"/><path fill="#5a6c86" d="M135-194c87-1 58 113 63 194h-50c-7-57 23-157-34-157-59 0-34 97-39 157H25l-1-190h47c2 12-1 28 3 38 12-26 28-41 61-42" id="ad"/><path fill="#5a6c86" d="M88-194c31-1 46 15 58 34l-1-101h50l1 261h-48c-2-10 0-23-3-31C134-8 116 4 84 4 32 4 16-41 15-95c0-56 19-97 73-99zm17 164c33 0 40-30 41-66 1-37-9-64-41-64s-38 30-39 65c0 43 13 65 39 65" id="ae"/><g id="e"><use transform="matrix(0.06172839506172839,0,0,0.06172839506172839,0,0)" xlink:href="#Z"/><use transform="matrix(0.06172839506172839,0,0,0.06172839506172839,15.987654320987653,0)" xlink:href="#aa"/><use transform="matrix(0.06172839506172839,0,0,0.06172839506172839,28.333333333333332,0)" xlink:href="#ab"/><use transform="matrix(0.06172839506172839,0,0,0.06172839506172839,40.67901234567901,0)" xlink:href="#ac"/><use transform="matrix(0.06172839506172839,0,0,0.06172839506172839,53.02469135802469,0)" xlink:href="#U"/><use transform="matrix(0.06172839506172839,0,0,0.06172839506172839,65.37037037037037,0)" xlink:href="#ad"/><use transform="matrix(0.06172839506172839,0,0,0.06172839506172839,78.88888888888889,0)" xlink:href="#ae"/></g><path fill="#5a6c86" d="M76-208v77h127v40H76V0H24v-248h183v40H76" id="af"/><path fill="#5a6c86" d="M135-150c-39-12-60 13-60 57V0H25l-1-190h47c2 13-1 29 3 40 6-28 27-53 61-41v41" id="ag"/><path fill="#5a6c86" d="M110-194c64 0 96 36 96 99 0 64-35 99-97 99-61 0-95-36-95-99 0-62 34-99 96-99zm-1 164c35 0 45-28 45-65 0-40-10-65-43-65-34 0-45 26-45 65 0 36 10 65 43 65" id="ah"/><path fill="#5a6c86" d="M115-3C79 11 28 4 28-45v-112H4v-33h27l15-45h31v45h36v33H77v99c-1 23 16 31 38 25v30" id="ai"/><g id="f"><use transform="matrix(0.06172839506172839,0,0,0.06172839506172839,0,0)" xlink:href="#af"/><use transform="matrix(0.06172839506172839,0,0,0.06172839506172839,13.518518518518517,0)" xlink:href="#ag"/><use transform="matrix(0.06172839506172839,0,0,0.06172839506172839,22.160493827160494,0)" xlink:href="#ah"/><use transform="matrix(0.06172839506172839,0,0,0.06172839506172839,35.67901234567901,0)" xlink:href="#ad"/><use transform="matrix(0.06172839506172839,0,0,0.06172839506172839,49.19753086419753,0)" xlink:href="#ai"/><use transform="matrix(0.06172839506172839,0,0,0.06172839506172839,56.54320987654321,0)" xlink:href="#U"/><use transform="matrix(0.06172839506172839,0,0,0.06172839506172839,68.88888888888889,0)" xlink:href="#ad"/><use transform="matrix(0.06172839506172839,0,0,0.06172839506172839,82.4074074074074,0)" xlink:href="#ae"/></g><path fill="#5a6c86" d="M24 0v-248h52V0H24" id="aj"/><path fill="#5a6c86" d="M67-125c0 53 21 87 73 88 37 1 54-22 65-47l45 17C233-25 199 4 140 4 58 4 20-42 15-125 8-235 124-281 211-232c18 10 29 29 36 50l-46 12c-8-25-30-41-62-41-52 0-71 34-72 86" id="ak"/><g id="g"><use transform="matrix(0.07407407407407408,0,0,0.07407407407407408,0,0)" xlink:href="#aj"/><use transform="matrix(0.07407407407407408,0,0,0.07407407407407408,7.407407407407408,0)" xlink:href="#aa"/><use transform="matrix(0.07407407407407408,0,0,0.07407407407407408,22.222222222222225,0)" xlink:href="#ak"/></g><path d="M205 0l-28-72H64L36 0H1l101-248h38L239 0h-34zm-38-99l-47-123c-12 45-31 82-46 123h93" id="al"/><path d="M210-169c-67 3-38 105-44 169h-31v-121c0-29-5-50-35-48C34-165 62-65 56 0H25l-1-190h30c1 10-1 24 2 32 10-44 99-50 107 0 11-21 27-35 58-36 85-2 47 119 55 194h-31v-121c0-29-5-49-35-48" id="am"/><path d="M141-36C126-15 110 5 73 4 37 3 15-17 15-53c-1-64 63-63 125-63 3-35-9-54-41-54-24 1-41 7-42 31l-33-3c5-37 33-52 76-52 45 0 72 20 72 64v82c-1 20 7 32 28 27v20c-31 9-61-2-59-35zM48-53c0 20 12 33 32 33 41-3 63-29 60-74-43 2-92-5-92 41" id="an"/><path d="M9 0v-24l116-142H16v-24h144v24L44-24h123V0H9" id="ao"/><path d="M100-194c62-1 85 37 85 99 1 63-27 99-86 99S16-35 15-95c0-66 28-99 85-99zM99-20c44 1 53-31 53-75 0-43-8-75-51-75s-53 32-53 75 10 74 51 75" id="ap"/><path d="M117-194c89-4 53 116 60 194h-32v-121c0-31-8-49-39-48C34-167 62-67 57 0H25l-1-190h30c1 10-1 24 2 32 11-22 29-35 61-36" id="aq"/><g id="h"><use transform="matrix(0.05,0,0,0.05,0,0)" xlink:href="#al"/><use transform="matrix(0.05,0,0,0.05,12,0)" xlink:href="#am"/><use transform="matrix(0.05,0,0,0.05,26.950000000000003,0)" xlink:href="#an"/><use transform="matrix(0.05,0,0,0.05,36.95,0)" xlink:href="#ao"/><use transform="matrix(0.05,0,0,0.05,45.95,0)" xlink:href="#ap"/><use transform="matrix(0.05,0,0,0.05,55.95,0)" xlink:href="#aq"/></g><path d="M212-179c-10-28-35-45-73-45-59 0-87 40-87 99 0 60 29 101 89 101 43 0 62-24 78-52l27 14C228-24 195 4 139 4 59 4 22-46 18-125c-6-104 99-153 187-111 19 9 31 26 39 46" id="ar"/><path d="M24 0v-261h32V0H24" id="as"/><path d="M84 4C-5 8 30-112 23-190h32v120c0 31 7 50 39 49 72-2 45-101 50-169h31l1 190h-30c-1-10 1-25-2-33-11 22-28 36-60 37" id="at"/><path d="M85-194c31 0 48 13 60 33l-1-100h32l1 261h-30c-2-10 0-23-3-31C134-8 116 4 85 4 32 4 16-35 15-94c0-66 23-100 70-100zm9 24c-40 0-46 34-46 75 0 40 6 74 45 74 42 0 51-32 51-76 0-42-9-74-50-73" id="au"/><path d="M63-220v92h138v28H63V0H30v-248h175v28H63" id="av"/><path d="M114-163C36-179 61-72 57 0H25l-1-190h30c1 12-1 29 2 39 6-27 23-49 58-41v29" id="aw"/><path d="M59-47c-2 24 18 29 38 22v24C64 9 27 4 27-40v-127H5v-23h24l9-43h21v43h35v23H59v120" id="ax"/><g id="i"><use transform="matrix(0.05,0,0,0.05,0,0)" xlink:href="#ar"/><use transform="matrix(0.05,0,0,0.05,12.950000000000001,0)" xlink:href="#as"/><use transform="matrix(0.05,0,0,0.05,16.900000000000002,0)" xlink:href="#ap"/><use transform="matrix(0.05,0,0,0.05,26.900000000000002,0)" xlink:href="#at"/><use transform="matrix(0.05,0,0,0.05,36.900000000000006,0)" xlink:href="#au"/><use transform="matrix(0.05,0,0,0.05,46.900000000000006,0)" xlink:href="#av"/><use transform="matrix(0.05,0,0,0.05,57.85,0)" xlink:href="#aw"/><use transform="matrix(0.05,0,0,0.05,63.80000000000001,0)" xlink:href="#ap"/><use transform="matrix(0.05,0,0,0.05,73.80000000000001,0)" xlink:href="#aq"/><use transform="matrix(0.05,0,0,0.05,83.80000000000001,0)" xlink:href="#ax"/></g><path d="M233-177c-1 41-23 64-60 70L243 0h-38l-65-103H63V0H30v-248c88 3 205-21 203 71zM63-129c60-2 137 13 137-47 0-61-80-42-137-45v92" id="ay"/><path d="M100-194c63 0 86 42 84 106H49c0 40 14 67 53 68 26 1 43-12 49-29l28 8c-11 28-37 45-77 45C44 4 14-33 15-96c1-61 26-98 85-98zm52 81c6-60-76-77-97-28-3 7-6 17-6 28h103" id="az"/><g id="j"><use transform="matrix(0.05,0,0,0.05,0,0)" xlink:href="#ay"/><use transform="matrix(0.05,0,0,0.05,12.950000000000001,0)" xlink:href="#ap"/><use transform="matrix(0.05,0,0,0.05,22.950000000000003,0)" xlink:href="#at"/><use transform="matrix(0.05,0,0,0.05,32.95,0)" xlink:href="#ax"/><use transform="matrix(0.05,0,0,0.05,37.95,0)" xlink:href="#az"/></g><path d="M54-142c48-35 137-8 131 61C196 18 31 33 14-55l32-4c7 23 22 37 52 37 35-1 51-22 54-58 4-55-73-65-99-34H22l8-134h141v27H59" id="aA"/><path d="M126-127c33 6 58 20 58 59 0 88-139 92-164 29-3-8-5-16-6-25l32-3c6 27 21 44 54 44 32 0 52-15 52-46 0-38-36-46-79-43v-28c39 1 72-4 72-42 0-27-17-43-46-43-28 0-47 15-49 41l-32-3c6-42 35-63 81-64 48-1 79 21 79 65 0 36-21 52-52 59" id="aB"/><g id="k"><use transform="matrix(0.05,0,0,0.05,0,0)" xlink:href="#aA"/><use transform="matrix(0.05,0,0,0.05,10,0)" xlink:href="#aB"/></g><path d="M266 0h-40l-56-210L115 0H75L2-248h35L96-30l15-64 43-154h32l59 218 59-218h35" id="aC"/><path d="M185-189c-5-48-123-54-124 2 14 75 158 14 163 119 3 78-121 87-175 55-17-10-28-26-33-46l33-7c5 56 141 63 141-1 0-78-155-14-162-118-5-82 145-84 179-34 5 7 8 16 11 25" id="aD"/><g id="l"><use transform="matrix(0.05,0,0,0.05,0,0)" xlink:href="#al"/><use transform="matrix(0.05,0,0,0.05,11.35,0)" xlink:href="#aC"/><use transform="matrix(0.05,0,0,0.05,28.299999999999997,0)" xlink:href="#aD"/></g><path d="M24-231v-30h32v30H24zM24 0v-190h32V0H24" id="aE"/><path d="M101-234c-31-9-42 10-38 44h38v23H63V0H32v-167H5v-23h27c-7-52 17-82 69-68v24" id="aF"/><path d="M96-169c-40 0-48 33-48 73s9 75 48 75c24 0 41-14 43-38l32 2c-6 37-31 61-74 61-59 0-76-41-82-99-10-93 101-131 147-64 4 7 5 14 7 22l-32 3c-4-21-16-35-41-35" id="aG"/><g id="m"><use transform="matrix(0.05,0,0,0.05,0,0)" xlink:href="#ar"/><use transform="matrix(0.05,0,0,0.05,12.950000000000001,0)" xlink:href="#az"/><use transform="matrix(0.05,0,0,0.05,22.950000000000003,0)" xlink:href="#aw"/><use transform="matrix(0.05,0,0,0.05,28.900000000000002,0)" xlink:href="#ax"/><use transform="matrix(0.05,0,0,0.05,33.900000000000006,0)" xlink:href="#aE"/><use transform="matrix(0.05,0,0,0.05,37.85000000000001,0)" xlink:href="#aF"/><use transform="matrix(0.05,0,0,0.05,42.85000000000001,0)" xlink:href="#aE"/><use transform="matrix(0.05,0,0,0.05,46.80000000000001,0)" xlink:href="#aG"/><use transform="matrix(0.05,0,0,0.05,55.80000000000001,0)" xlink:href="#an"/><use transform="matrix(0.05,0,0,0.05,65.80000000000001,0)" xlink:href="#ax"/><use transform="matrix(0.05,0,0,0.05,70.80000000000001,0)" xlink:href="#az"/></g><path d="M240 0l2-218c-23 76-54 145-80 218h-23L58-218 59 0H30v-248h44l77 211c21-75 51-140 76-211h43V0h-30" id="aH"/><path d="M177-190C167-65 218 103 67 71c-23-6-38-20-44-43l32-5c15 47 100 32 89-28v-30C133-14 115 1 83 1 29 1 15-40 15-95c0-56 16-97 71-98 29-1 48 16 59 35 1-10 0-23 2-32h30zM94-22c36 0 50-32 50-73 0-42-14-75-50-75-39 0-46 34-46 75s6 73 46 73" id="aI"/><g id="n"><use transform="matrix(0.05,0,0,0.05,0,0)" xlink:href="#aH"/><use transform="matrix(0.05,0,0,0.05,14.950000000000001,0)" xlink:href="#an"/><use transform="matrix(0.05,0,0,0.05,24.950000000000003,0)" xlink:href="#aq"/><use transform="matrix(0.05,0,0,0.05,34.95,0)" xlink:href="#an"/><use transform="matrix(0.05,0,0,0.05,44.95,0)" xlink:href="#aI"/><use transform="matrix(0.05,0,0,0.05,54.95,0)" xlink:href="#az"/><use transform="matrix(0.05,0,0,0.05,64.95,0)" xlink:href="#aw"/></g><path d="M87 75C49 33 22-17 22-94c0-76 28-126 65-167h31c-38 41-64 92-64 168S80 34 118 75H87" id="aJ"/><path d="M33-261c38 41 65 92 65 168S71 34 33 75H2C39 34 66-17 66-93S39-220 2-261h31" id="aK"/><g id="o"><use transform="matrix(0.05,0,0,0.05,0,0)" xlink:href="#aJ"/><use transform="matrix(0.05,0,0,0.05,5.95,0)" xlink:href="#al"/><use transform="matrix(0.05,0,0,0.05,17.95,0)" xlink:href="#ar"/><use transform="matrix(0.05,0,0,0.05,30.899999999999995,0)" xlink:href="#aH"/><use transform="matrix(0.05,0,0,0.05,45.85,0)" xlink:href="#aK"/></g><path d="M30-248c118-7 216 8 213 122C240-48 200 0 122 0H30v-248zM63-27c89 8 146-16 146-99s-60-101-146-95v194" id="aL"/><path d="M179-190L93 31C79 59 56 82 12 73V49c39 6 53-20 64-50L1-190h34L92-34l54-156h33" id="aM"/><path d="M160-131c35 5 61 23 61 61C221 17 115-2 30 0v-248c76 3 177-17 177 60 0 33-19 50-47 57zm-97-11c50-1 110 9 110-42 0-47-63-36-110-37v79zm0 115c55-2 124 14 124-45 0-56-70-42-124-44v89" id="aN"/><g id="p"><use transform="matrix(0.05,0,0,0.05,0,0)" xlink:href="#aL"/><use transform="matrix(0.05,0,0,0.05,12.950000000000001,0)" xlink:href="#aM"/><use transform="matrix(0.05,0,0,0.05,21.950000000000003,0)" xlink:href="#aq"/><use transform="matrix(0.05,0,0,0.05,31.950000000000003,0)" xlink:href="#an"/><use transform="matrix(0.05,0,0,0.05,41.95,0)" xlink:href="#am"/><use transform="matrix(0.05,0,0,0.05,56.900000000000006,0)" xlink:href="#ap"/><use transform="matrix(0.05,0,0,0.05,66.9,0)" xlink:href="#aL"/><use transform="matrix(0.05,0,0,0.05,79.85000000000001,0)" xlink:href="#aN"/></g><path d="M30-248c87 1 191-15 191 75 0 78-77 80-158 76V0H30v-248zm33 125c57 0 124 11 124-50 0-59-68-47-124-48v98" id="aO"/><path d="M33 0v-248h34V0H33" id="aP"/><g id="q"><use transform="matrix(0.05,0,0,0.05,0,0)" xlink:href="#al"/><use transform="matrix(0.05,0,0,0.05,12,0)" xlink:href="#aO"/><use transform="matrix(0.05,0,0,0.05,24,0)" xlink:href="#aP"/></g><path d="M143 4C61 4 22-44 18-125c-5-107 100-154 193-111 17 8 29 25 37 43l-32 9c-13-25-37-40-76-40-61 0-88 39-88 99 0 61 29 100 91 101 35 0 62-11 79-27v-45h-74v-28h105v86C228-13 192 4 143 4" id="aQ"/><path d="M206 0h-36l-40-164L89 0H53L-1-190h32L70-26l43-164h34l41 164 42-164h31" id="aR"/><g id="r"><use transform="matrix(0.05,0,0,0.05,0,0)" xlink:href="#aQ"/><use transform="matrix(0.05,0,0,0.05,14,0)" xlink:href="#an"/><use transform="matrix(0.05,0,0,0.05,24,0)" xlink:href="#ax"/><use transform="matrix(0.05,0,0,0.05,29,0)" xlink:href="#az"/><use transform="matrix(0.05,0,0,0.05,39,0)" xlink:href="#aR"/><use transform="matrix(0.05,0,0,0.05,51.95,0)" xlink:href="#an"/><use transform="matrix(0.05,0,0,0.05,61.95,0)" xlink:href="#aM"/></g><path d="M30 0v-248h33v221h125V0H30" id="aS"/><path d="M115-194c53 0 69 39 70 98 0 66-23 100-70 100C84 3 66-7 56-30L54 0H23l1-261h32v101c10-23 28-34 59-34zm-8 174c40 0 45-34 45-75 0-40-5-75-45-74-42 0-51 32-51 76 0 43 10 73 51 73" id="aT"/><g id="s"><use transform="matrix(0.05,0,0,0.05,0,0)" xlink:href="#aS"/><use transform="matrix(0.05,0,0,0.05,10,0)" xlink:href="#an"/><use transform="matrix(0.05,0,0,0.05,20,0)" xlink:href="#am"/><use transform="matrix(0.05,0,0,0.05,34.95,0)" xlink:href="#aT"/><use transform="matrix(0.05,0,0,0.05,44.95,0)" xlink:href="#au"/><use transform="matrix(0.05,0,0,0.05,54.95,0)" xlink:href="#an"/></g><g id="t"><use transform="matrix(0.05,0,0,0.05,0,0)" xlink:href="#av"/><use transform="matrix(0.05,0,0,0.05,10.950000000000001,0)" xlink:href="#at"/><use transform="matrix(0.05,0,0,0.05,20.950000000000003,0)" xlink:href="#aq"/><use transform="matrix(0.05,0,0,0.05,30.950000000000003,0)" xlink:href="#aG"/><use transform="matrix(0.05,0,0,0.05,39.95,0)" xlink:href="#ax"/><use transform="matrix(0.05,0,0,0.05,44.95,0)" xlink:href="#aE"/><use transform="matrix(0.05,0,0,0.05,48.900000000000006,0)" xlink:href="#ap"/><use transform="matrix(0.05,0,0,0.05,58.900000000000006,0)" xlink:href="#aq"/></g><path d="M197 0v-115H63V0H30v-248h33v105h134v-105h34V0h-34" id="aU"/><g id="u"><use transform="matrix(0.05,0,0,0.05,0,0)" xlink:href="#aQ"/><use transform="matrix(0.05,0,0,0.05,14,0)" xlink:href="#aE"/><use transform="matrix(0.05,0,0,0.05,17.95,0)" xlink:href="#ax"/><use transform="matrix(0.05,0,0,0.05,22.95,0)" xlink:href="#aU"/><use transform="matrix(0.05,0,0,0.05,35.9,0)" xlink:href="#at"/><use transform="matrix(0.05,0,0,0.05,45.9,0)" xlink:href="#aT"/></g><path d="M127-220V0H93v-220H8v-28h204v28h-85" id="aV"/><g id="v"><use transform="matrix(0.05,0,0,0.05,0,0)" xlink:href="#aV"/><use transform="matrix(0.05,0,0,0.05,8.950000000000001,0)" xlink:href="#az"/><use transform="matrix(0.05,0,0,0.05,18.950000000000003,0)" xlink:href="#aw"/><use transform="matrix(0.05,0,0,0.05,24.900000000000002,0)" xlink:href="#aw"/><use transform="matrix(0.05,0,0,0.05,30.85,0)" xlink:href="#an"/><use transform="matrix(0.05,0,0,0.05,40.85,0)" xlink:href="#aF"/><use transform="matrix(0.05,0,0,0.05,45.85,0)" xlink:href="#ap"/><use transform="matrix(0.05,0,0,0.05,55.85,0)" xlink:href="#aw"/><use transform="matrix(0.05,0,0,0.05,61.800000000000004,0)" xlink:href="#am"/></g><path d="M135-143c-3-34-86-38-87 0 15 53 115 12 119 90S17 21 10-45l28-5c4 36 97 45 98 0-10-56-113-15-118-90-4-57 82-63 122-42 12 7 21 19 24 35" id="aW"/><g id="w"><use transform="matrix(0.05,0,0,0.05,0,0)" xlink:href="#aV"/><use transform="matrix(0.05,0,0,0.05,8.950000000000001,0)" xlink:href="#az"/><use transform="matrix(0.05,0,0,0.05,18.950000000000003,0)" xlink:href="#aW"/><use transform="matrix(0.05,0,0,0.05,27.950000000000003,0)" xlink:href="#ax"/><use transform="matrix(0.05,0,0,0.05,32.95,0)" xlink:href="#aE"/><use transform="matrix(0.05,0,0,0.05,36.900000000000006,0)" xlink:href="#aq"/><use transform="matrix(0.05,0,0,0.05,46.900000000000006,0)" xlink:href="#aI"/></g><path d="M232-93c-1 65-40 97-104 97C67 4 28-28 28-90v-158h33c8 89-33 224 67 224 102 0 64-133 71-224h33v155" id="aX"/><g id="x"><use transform="matrix(0.05,0,0,0.05,0,0)" xlink:href="#aX"/><use transform="matrix(0.05,0,0,0.05,12.950000000000001,0)" xlink:href="#aW"/><use transform="matrix(0.05,0,0,0.05,21.950000000000003,0)" xlink:href="#az"/><use transform="matrix(0.05,0,0,0.05,31.950000000000003,0)" xlink:href="#aw"/><use transform="matrix(0.05,0,0,0.05,37.900000000000006,0)" xlink:href="#aW"/></g><g id="y"><use transform="matrix(0.05,0,0,0.05,0,0)" xlink:href="#aD"/><use transform="matrix(0.05,0,0,0.05,12,0)" xlink:href="#aB"/></g><g id="z"><use transform="matrix(0.05,0,0,0.05,0,0)" xlink:href="#aD"/><use transform="matrix(0.05,0,0,0.05,12,0)" xlink:href="#ax"/><use transform="matrix(0.05,0,0,0.05,17,0)" xlink:href="#an"/><use transform="matrix(0.05,0,0,0.05,27,0)" xlink:href="#ax"/><use transform="matrix(0.05,0,0,0.05,32,0)" xlink:href="#aE"/><use transform="matrix(0.05,0,0,0.05,35.95,0)" xlink:href="#aG"/></g><g id="A"><use transform="matrix(0.05,0,0,0.05,0,0)" xlink:href="#aU"/><use transform="matrix(0.05,0,0,0.05,12.950000000000001,0)" xlink:href="#ap"/><use transform="matrix(0.05,0,0,0.05,22.950000000000003,0)" xlink:href="#aW"/><use transform="matrix(0.05,0,0,0.05,31.950000000000003,0)" xlink:href="#ax"/><use transform="matrix(0.05,0,0,0.05,36.95,0)" xlink:href="#aE"/><use transform="matrix(0.05,0,0,0.05,40.900000000000006,0)" xlink:href="#aq"/><use transform="matrix(0.05,0,0,0.05,50.900000000000006,0)" xlink:href="#aI"/></g><g id="B"><use transform="matrix(0.05,0,0,0.05,0,0)" xlink:href="#aQ"/><use transform="matrix(0.05,0,0,0.05,14,0)" xlink:href="#aE"/><use transform="matrix(0.05,0,0,0.05,17.95,0)" xlink:href="#ax"/><use transform="matrix(0.05,0,0,0.05,22.95,0)" xlink:href="#aU"/><use transform="matrix(0.05,0,0,0.05,35.9,0)" xlink:href="#at"/><use transform="matrix(0.05,0,0,0.05,45.9,0)" xlink:href="#aT"/></g><g id="C"><use transform="matrix(0.05,0,0,0.05,0,0)" xlink:href="#al"/><use transform="matrix(0.05,0,0,0.05,12,0)" xlink:href="#aG"/><use transform="matrix(0.05,0,0,0.05,21,0)" xlink:href="#ax"/><use transform="matrix(0.05,0,0,0.05,26,0)" xlink:href="#aE"/><use transform="matrix(0.05,0,0,0.05,29.950000000000003,0)" xlink:href="#ap"/><use transform="matrix(0.05,0,0,0.05,39.95,0)" xlink:href="#aq"/><use transform="matrix(0.05,0,0,0.05,49.95,0)" xlink:href="#aW"/></g></defs></g></svg>